<svg xmlns="http://www.w3.org/2000/svg" xmlns:xlink="http://www.w3.org/1999/xlink" width="130.3" height="49.615" viewBox="0 0 130.3 49.615">
  <defs>
    <radialGradient id="radial-gradient" cx="0.5" cy="0.5" r="0.5" gradientUnits="objectBoundingBox">
      <stop offset="0" stop-color="#ff6a6a"/>
      <stop offset="1" stop-color="#ff3e3e"/>
    </radialGradient>
    <filter id="Path_2389" x="0" y="0" width="130.3" height="49.615" filterUnits="userSpaceOnUse">
      <feOffset dy="6" input="SourceAlpha"/>
      <feGaussianBlur stdDeviation="3" result="blur"/>
      <feFlood flood-opacity="0.161"/>
      <feComposite operator="in" in2="blur"/>
      <feComposite in="SourceGraphic"/>
    </filter>
    <filter id="Quick_Book" x="24.3" y="6.072" width="76" height="31" filterUnits="userSpaceOnUse">
      <feOffset dy="3" input="SourceAlpha"/>
      <feGaussianBlur stdDeviation="1" result="blur-2"/>
      <feFlood flood-opacity="0.161"/>
      <feComposite operator="in" in2="blur-2"/>
      <feComposite in="SourceGraphic"/>
    </filter>
  </defs>
  <g id="Quick_book_button" data-name="Quick book button" transform="translate(-289.7 -212.686)">
    <g transform="matrix(1, 0, 0, 1, 289.7, 212.69)" filter="url(#Path_2389)">
      <g id="Path_2389-2" data-name="Path 2389" transform="translate(9 3)" fill="url(#radial-gradient)">
        <path d="M 97.2225341796875 31.11523246765137 L 15.0772876739502 31.11523246765137 C 11.18804550170898 31.11523246765137 7.530288219451904 29.52596092224121 4.77784538269043 26.64019012451172 C 2.019230842590332 23.74796104431152 0.5000023245811462 19.90087509155273 0.5000023245811462 15.80761814117432 C 0.5000023245811462 11.7143611907959 2.019230842590332 7.867275238037109 4.77784538269043 4.975046634674072 C 7.53030252456665 2.089275360107422 11.18804550170898 0.5000038743019104 15.0772876739502 0.5000038743019104 L 97.2225341796875 0.5000038743019104 C 101.1117706298828 0.5000038743019104 104.7695159912109 2.089275360107422 107.5219573974609 4.975046634674072 C 110.2805709838867 7.867275238037109 111.7998046875 11.7143611907959 111.7998046875 15.80761814117432 C 111.7998046875 19.90087509155273 110.2805709838867 23.74796104431152 107.5219573974609 26.64020347595215 C 104.7695159912109 29.52596092224121 101.1117706298828 31.11523246765137 97.2225341796875 31.11523246765137 Z" stroke="none"/>
        <path d="M 15.07728576660156 1.000001907348633 C 11.32608795166016 1.000001907348633 7.796829223632813 2.534248352050781 5.139656066894531 5.320140838623047 C 2.470146179199219 8.118940353393555 0.9999923706054688 11.84347915649414 0.9999923706054688 15.80761814117432 C 0.9999923706054688 19.77175521850586 2.470146179199219 23.49629592895508 5.139656066894531 26.29509544372559 C 7.796829223632813 29.08098793029785 11.32608795166016 30.615234375 15.07728576660156 30.615234375 L 97.22251892089844 30.615234375 C 100.9737319946289 30.615234375 104.5029754638672 29.08098793029785 107.1601486206055 26.29509544372559 C 109.8296585083008 23.49629592895508 111.2998123168945 19.77177238464355 111.2998123168945 15.80761814117432 C 111.2998123168945 11.84346389770508 109.8296585083008 8.118940353393555 107.1601486206055 5.320140838623047 C 104.5029754638672 2.534248352050781 100.9737319946289 1.000001907348633 97.22251892089844 1.000001907348633 L 15.07728576660156 1.000001907348633 M 15.07728576660156 1.9073486328125e-06 L 97.22251892089844 1.9073486328125e-06 C 105.5494842529297 1.9073486328125e-06 112.2998123168945 7.077310562133789 112.2998123168945 15.80761814117432 C 112.2998123168945 24.53792572021484 105.5494842529297 31.615234375 97.22251892089844 31.615234375 L 15.07728576660156 31.615234375 C 6.750335693359375 31.615234375 -7.62939453125e-06 24.53792572021484 -7.62939453125e-06 15.80761814117432 C -7.62939453125e-06 7.077310562133789 6.750335693359375 1.9073486328125e-06 15.07728576660156 1.9073486328125e-06 Z" stroke="none" fill="#3197ff"/>
      </g>
    </g>
    <g transform="matrix(1, 0, 0, 1, 289.7, 212.69)" filter="url(#Quick_Book)">
      <text id="Quick_Book-2" data-name="Quick Book" transform="translate(27.3 23.07)" fill="#fff" font-size="15" font-family="Dubai-Regular, Dubai"><tspan x="0" y="0">Quick Book</tspan></text>
    </g>
    <path id="Icon_ionic-ios-arrow-back" data-name="Icon ionic-ios-arrow-back" d="M13.109,11.584l4.08-4.077A.771.771,0,0,0,16.1,6.419l-4.623,4.62a.769.769,0,0,0-.022,1.063l4.642,4.652a.771.771,0,1,0,1.092-1.088Z" transform="translate(412.584 242.77) rotate(180)" fill="#fff"/>
  </g>
</svg>
