<svg id="add_location" data-name="add location" xmlns="http://www.w3.org/2000/svg" width="16.758" height="16.758" viewBox="0 0 16.758 16.758">
  <g id="Group_16315" data-name="Group 16315">
    <g id="Group_16314" data-name="Group 16314">
      <path id="Path_2167" data-name="Path 2167" d="M6.284,0A6.291,6.291,0,0,0,0,6.284C0,10.64,5.673,16.363,5.913,16.6a.526.526,0,0,0,.742,0c.071-.071.626-.634,1.364-1.49a5.176,5.176,0,0,1-.687-2.546,5.23,5.23,0,0,1,5.125-5.225,5.909,5.909,0,0,0,.112-1.059A6.291,6.291,0,0,0,6.284,0Zm0,9.426A3.142,3.142,0,1,1,9.426,6.284,3.146,3.146,0,0,1,6.284,9.426Z" fill="#ff7f7b"/>
    </g>
  </g>
  <g id="Group_16317" data-name="Group 16317" transform="translate(8.379 8.379)">
    <g id="Group_16316" data-name="Group 16316">
      <path id="Path_2168" data-name="Path 2168" d="M260.189,256a4.189,4.189,0,1,0,4.189,4.189A4.19,4.19,0,0,0,260.189,256Zm1.571,4.713h-1.047v1.047a.524.524,0,0,1-1.047,0v-1.047h-1.047a.524.524,0,0,1,0-1.047h1.047v-1.047a.524.524,0,0,1,1.047,0v1.047h1.047a.524.524,0,0,1,0,1.047Z" transform="translate(-256 -256)" fill="#168fe4"/>
    </g>
  </g>
</svg>
