<svg xmlns="http://www.w3.org/2000/svg" width="30" height="30" viewBox="0 0 30 30">
  <g id="address" transform="translate(0)">
    <path id="Path_2371" data-name="Path 2371" d="M213.637,75A2.637,2.637,0,1,1,211,77.637,2.64,2.64,0,0,1,213.637,75Zm0,0" transform="translate(-198.637 -70.605)" fill="#fff"/>
    <path id="Path_2372" data-name="Path 2372" d="M143.031,0a7.032,7.032,0,0,1,5.951,10.777l-5.951,9.5-5.951-9.5A7.032,7.032,0,0,1,143.031,0Zm0,11.426a4.395,4.395,0,1,0-4.395-4.395A4.4,4.4,0,0,0,143.031,11.426Zm0,0" transform="translate(-128.031)" fill="#fff"/>
    <path id="Path_2373" data-name="Path 2373" d="M191.548,426.332H183l.676-5.332h7.217Zm0,0" transform="translate(-172.271 -396.332)" fill="#fff"/>
    <path id="Path_2374" data-name="Path 2374" d="M200.975,327.562h-2.983l2.49-3.949Zm0,0" transform="translate(-182.576 -304.651)" fill="#fff"/>
    <path id="Path_2375" data-name="Path 2375" d="M339.21,306.273h-6.924l2.2-5.273h5.4Zm0,0" transform="translate(-329.356 -283.363)" fill="#fff"/>
    <path id="Path_2376" data-name="Path 2376" d="M57.556,306.273h-6.9L50,301h5.362Zm0,0" transform="translate(-30.485 -283.363)" fill="#fff"/>
    <path id="Path_2377" data-name="Path 2377" d="M266.052,328.374h-2.958l.5-3.9Zm0,0" transform="translate(-251.467 -305.464)" fill="#fff"/>
    <path id="Path_2378" data-name="Path 2378" d="M0,421H7.413l2.2,5.332H.659Zm0,0" transform="translate(20.39 -396.332)" fill="#fff"/>
    <path id="Path_2379" data-name="Path 2379" d="M349.869,421H357.3l-.676,5.332h-8.953Zm0,0" transform="translate(-347.672 -396.332)" fill="#fff"/>
  </g>
</svg>
