<svg xmlns="http://www.w3.org/2000/svg" width="19.72" height="26.417" viewBox="0 0 19.72 25.417">
  <g id="address" transform="translate(0 0)">
    <g id="Group_239" data-name="Group 239" transform="translate(0 0)">
      <g id="Group_238" data-name="Group 238" transform="translate(0)">
        <path id="Path_2211" data-name="Path 2211" d="M76.223,0H60.447a.876.876,0,0,0-.876.876V2.629H57.817a.438.438,0,1,0,0,.876H59.57V7.45H57.817a.438.438,0,1,0,0,.876H59.57V12.27H57.817a.438.438,0,1,0,0,.876H59.57v3.944H57.817a.438.438,0,1,0,0,.876H59.57v3.944H57.817a.438.438,0,1,0,0,.876H59.57v1.753a.876.876,0,0,0,.876.876H76.223a.876.876,0,0,0,.876-.876V.876A.876.876,0,0,0,76.223,0ZM65.705,6.135A2.194,2.194,0,0,1,67.9,3.944h.876a2.194,2.194,0,0,1,2.191,2.191V7.888a2.194,2.194,0,0,1-2.191,2.191H67.9a2.194,2.194,0,0,1-2.191-2.191ZM61.634,22.66a.507.507,0,0,1-.145.092.438.438,0,0,1-.167.035.59.59,0,0,1-.088-.009.278.278,0,0,1-.079-.026.332.332,0,0,1-.079-.039l-.066-.053a.461.461,0,0,1-.127-.311.438.438,0,0,1,.035-.167.506.506,0,0,1,.092-.145.438.438,0,0,1,.478-.092.453.453,0,0,1,.145.092.507.507,0,0,1,.092.145.367.367,0,0,1,.035.167A.461.461,0,0,1,61.634,22.66Zm0-4.82h0a.507.507,0,0,1-.145.092.438.438,0,0,1-.167.035.59.59,0,0,1-.088-.009.279.279,0,0,1-.079-.026.332.332,0,0,1-.079-.039l-.066-.053a.461.461,0,0,1-.127-.311.438.438,0,0,1,.035-.167.506.506,0,0,1,.092-.145.438.438,0,0,1,.478-.092.453.453,0,0,1,.145.092.507.507,0,0,1,.092.145.367.367,0,0,1,.035.167A.461.461,0,0,1,61.634,17.84Zm0-4.82h0a.516.516,0,0,1-.145.092.444.444,0,0,1-.167.035.591.591,0,0,1-.088-.009.308.308,0,0,1-.079-.026.334.334,0,0,1-.079-.04l-.066-.052a.461.461,0,0,1-.127-.311.439.439,0,0,1,.035-.167.5.5,0,0,1,.092-.144.438.438,0,0,1,.478-.092.453.453,0,0,1,.145.092.5.5,0,0,1,.092.144.37.37,0,0,1,.035.167A.461.461,0,0,1,61.634,13.02Zm0-4.82h0a.526.526,0,0,1-.145.092.444.444,0,0,1-.167.035.649.649,0,0,1-.088-.009.308.308,0,0,1-.079-.026.334.334,0,0,1-.079-.04L61.012,8.2a.461.461,0,0,1-.127-.311.439.439,0,0,1,.035-.167.5.5,0,0,1,.092-.144.438.438,0,0,1,.478-.092.453.453,0,0,1,.145.092.5.5,0,0,1,.092.144.368.368,0,0,1,.035.167A.461.461,0,0,1,61.634,8.2Zm0-4.82v0a.526.526,0,0,1-.145.092.444.444,0,0,1-.167.035.649.649,0,0,1-.088-.009.308.308,0,0,1-.079-.026.334.334,0,0,1-.079-.04l-.066-.052a.461.461,0,0,1-.127-.311A.439.439,0,0,1,60.92,2.9a.5.5,0,0,1,.092-.144.438.438,0,0,1,.478-.092.445.445,0,0,1,.145.092.5.5,0,0,1,.092.144.368.368,0,0,1,.035.167A.461.461,0,0,1,61.634,3.38ZM71.84,21.473H64.829a.438.438,0,1,1,0-.876H71.84a.438.438,0,0,1,0,.876Zm0-2.629H64.829a.438.438,0,1,1,0-.876H71.84a.438.438,0,0,1,0,.876Zm.438-3.506a.438.438,0,0,1-.438.438H69.778a.438.438,0,0,1,0-.876H71.4V13.147a1.268,1.268,0,0,0-1.212-1.315H66.479a1.268,1.268,0,0,0-1.212,1.315v2.191a.438.438,0,0,1-.876,0V13.147a2.144,2.144,0,0,1,2.088-2.191H70.19a2.144,2.144,0,0,1,2.088,2.191v2.191Z" transform="translate(-57.379)" fill="#587fe5"/>
        <path id="Path_2212" data-name="Path 2212" d="M244.206,101.93h.965a1.448,1.448,0,0,0,1.448-1.448V98.551a1.448,1.448,0,0,0-1.448-1.448h-.965a1.448,1.448,0,0,0-1.448,1.448v1.931A1.448,1.448,0,0,0,244.206,101.93Z" transform="translate(-233.757 -92.385)" fill="#587fe5"/>
      </g>
    </g>
  </g>
</svg>
