<svg xmlns="http://www.w3.org/2000/svg" width="22.001" height="23.419" viewBox="0 0 22.001 23.419">
  <path id="bell" d="M67.819,14.772a2.884,2.884,0,0,1-.876-1.193,13.809,13.809,0,0,1-.914-5.457c0-.007,0-.014,0-.021a5.267,5.267,0,0,0-3.1-4.777V2.068A2.068,2.068,0,0,0,60.864,0h-.171a2.068,2.068,0,0,0-2.064,2.068V3.324a5.267,5.267,0,0,0-3.1,4.8,13.809,13.809,0,0,1-.914,5.457,2.884,2.884,0,0,1-.876,1.193.529.529,0,0,0-.29.6.553.553,0,0,0,.545.425h3.986a2.8,2.8,0,0,0,5.6,0h3.986a.553.553,0,0,0,.545-.425A.529.529,0,0,0,67.819,14.772Zm-8.1-12.7a.979.979,0,0,1,.977-.978h.171a.979.979,0,0,1,.977.978v.9a5.267,5.267,0,0,0-2.125,0v-.9Zm1.062,15.4A1.716,1.716,0,0,1,59.066,15.8H62.49A1.716,1.716,0,0,1,60.778,17.473Zm2.19-2.764H55.232a5.7,5.7,0,0,0,.285-.5,13.768,13.768,0,0,0,1.1-6.087,4.163,4.163,0,1,1,8.326,0c0,.007,0,.013,0,.02a13.74,13.74,0,0,0,1.1,6.065,5.706,5.706,0,0,0,.285.5Z" transform="translate(-36.994 -26.717) rotate(30)" fill="#fff"/>
</svg>
