<svg xmlns="http://www.w3.org/2000/svg" width="37.333" height="24.294" viewBox="0 0 37.333 24.294">
  <g id="container__in_declaration" data-name="container _in declaration" transform="translate(0 0)">
    <g id="Group_210" data-name="Group 210" transform="translate(0 0)">
      <g id="Group_209" data-name="Group 209">
        <path id="Path_2185" data-name="Path 2185" d="M36.784,19.117v-.4a1.372,1.372,0,0,0-2.742-.056L17.2,15.83h-.732V14.046a1.647,1.647,0,0,0-3.294,0V15.83H4.941V14.046a1.647,1.647,0,1,0-3.294,0V15.83H0V36.693H17.2l20.136-2.957V19.209Zm-1.647-.4a.275.275,0,1,1,.549,0v.22l-.549-.092v-.128ZM14.274,14.046a.549.549,0,0,1,1.1,0V15.83h-1.1V14.046Zm-11.529,0a.549.549,0,1,1,1.1,0V15.83h-1.1Zm2.2,21.549H1.1V16.928H4.941v1.1H2.2V34.5H4.941Zm6.588-2.2h-1.1V29.556h-1.1V34.5h2.2v1.1H6.039V34.5h2.2V29.556h-1.1V33.4h-1.1V32.3h-1.1v1.1H3.294V19.124H4.941v1.1h1.1v-1.1h1.1v4.392h1.1v-5.49h-2.2v-1.1h5.49v1.1h-2.2v5.49h1.1V19.124h1.1v1.1h1.1v-1.1h1.647V33.4H12.627V32.3h-1.1v1.1Zm24.706-.612L17.569,35.528V32.85h-1.1v2.745H12.627V34.5h2.745V18.026H12.627v-1.1H16.47V29.556h1.1V17.005l18.667,3.133V32.787Z" transform="translate(0 -12.399)" fill="#606060"/>
      </g>
    </g>
    <g id="Group_212" data-name="Group 212" transform="translate(16.47 18.255)">
      <g id="Group_211" data-name="Group 211" transform="translate(0 0)">
        <rect id="Rectangle_416" data-name="Rectangle 416" width="1.098" height="1.098" fill="#606060"/>
      </g>
    </g>
    <g id="Group_214" data-name="Group 214" transform="translate(4.941 8.922)">
      <g id="Group_213" data-name="Group 213">
        <rect id="Rectangle_417" data-name="Rectangle 417" width="1.098" height="1.098" fill="#606060"/>
      </g>
    </g>
    <g id="Group_216" data-name="Group 216" transform="translate(4.392 11.118)">
      <g id="Group_215" data-name="Group 215">
        <path id="Path_2186" data-name="Path 2186" d="M16.588,34.64v-1.1h-1.1v1.1H10v-1.1H8.9v1.1H8.353v3.294H8.9v1.1H10v-1.1h5.49v1.1h1.1v-1.1h.549V34.64Zm-.549,2.2H9.451v-1.1h6.588Z" transform="translate(-8.353 -33.542)" fill="#606060"/>
      </g>
    </g>
    <g id="Group_218" data-name="Group 218" transform="translate(4.941 17.706)">
      <g id="Group_217" data-name="Group 217" transform="translate(0 0)">
        <rect id="Rectangle_418" data-name="Rectangle 418" width="1.098" height="1.098" fill="#606060"/>
      </g>
    </g>
    <g id="Group_220" data-name="Group 220" transform="translate(11.529 8.922)">
      <g id="Group_219" data-name="Group 219">
        <rect id="Rectangle_419" data-name="Rectangle 419" width="1.098" height="1.098" fill="#606060"/>
      </g>
    </g>
    <g id="Group_222" data-name="Group 222" transform="translate(11.529 17.706)">
      <g id="Group_221" data-name="Group 221" transform="translate(0 0)">
        <rect id="Rectangle_420" data-name="Rectangle 420" width="1.098" height="1.098" fill="#606060"/>
      </g>
    </g>
    <g id="Group_224" data-name="Group 224" transform="translate(19.765 6.726)">
      <g id="Group_223" data-name="Group 223" transform="translate(0 0)">
        <rect id="Rectangle_421" data-name="Rectangle 421" width="1.098" height="14.274" fill="#606060"/>
      </g>
    </g>
    <g id="Group_226" data-name="Group 226" transform="translate(22.51 7.275)">
      <g id="Group_225" data-name="Group 225">
        <rect id="Rectangle_422" data-name="Rectangle 422" width="1.098" height="13.176" fill="#606060"/>
      </g>
    </g>
    <g id="Group_228" data-name="Group 228" transform="translate(25.255 7.824)">
      <g id="Group_227" data-name="Group 227">
        <rect id="Rectangle_423" data-name="Rectangle 423" width="1.098" height="12.078" fill="#606060"/>
      </g>
    </g>
    <g id="Group_230" data-name="Group 230" transform="translate(28 8.373)">
      <g id="Group_229" data-name="Group 229">
        <rect id="Rectangle_424" data-name="Rectangle 424" width="1.098" height="10.98" fill="#606060"/>
      </g>
    </g>
    <g id="Group_232" data-name="Group 232" transform="translate(30.745 8.922)">
      <g id="Group_231" data-name="Group 231">
        <rect id="Rectangle_425" data-name="Rectangle 425" width="1.098" height="9.882" fill="#606060"/>
      </g>
    </g>
    <g id="Group_234" data-name="Group 234" transform="translate(33.49 9.471)">
      <g id="Group_233" data-name="Group 233">
        <rect id="Rectangle_426" data-name="Rectangle 426" width="1.098" height="8.784" fill="#606060"/>
      </g>
    </g>
  </g>
</svg>
