<svg xmlns="http://www.w3.org/2000/svg" width="28.253" height="35.599" viewBox="0 0 28.253 35.599">
  <g id="container__in_the_card" data-name="container_ in the card" transform="translate(-14.583 94.8)">
    <g id="container_1_" data-name="container (1)" transform="translate(-38.242 -94.8)">
      <g id="Group_235" data-name="Group 235" transform="translate(65.256)">
        <path id="Path_2187" data-name="Path 2187" d="M232.184,10.171a.565.565,0,0,1-.565-.565V.565a.565.565,0,1,1,1.13,0V9.606A.565.565,0,0,1,232.184,10.171Z" transform="translate(-231.619)" fill="#9c969e"/>
        <path id="Path_2188" data-name="Path 2188" d="M264.692,10.171a.565.565,0,0,1-.565-.565V.565a.565.565,0,0,1,1.13,0V9.606A.565.565,0,0,1,264.692,10.171Z" transform="translate(-261.867)" fill="#9c969e"/>
      </g>
      <path id="Path_2189" data-name="Path 2189" d="M61.515,228.47a.565.565,0,0,1-.294-1.048l13-7.911a.565.565,0,1,1,.587.965l-13,7.911A.561.561,0,0,1,61.515,228.47Z" transform="translate(-7.559 -204.172)" fill="#c9c6ca"/>
      <path id="Path_2190" data-name="Path 2190" d="M233.88,180.57v-1.777h-1.13v1.777a1.12,1.12,0,0,0,.745,1.077.565.565,0,1,1-.745.536.565.565,0,0,0-1.13,0,1.7,1.7,0,1,0,3.39,0A1.718,1.718,0,0,0,233.88,180.57Z" transform="translate(-166.363 -166.362)" fill="#867e88"/>
      <path id="Path_2191" data-name="Path 2191" d="M261.431,228.466a.56.56,0,0,1-.293-.083l-13-7.911a.565.565,0,1,1,.587-.965l13,7.911a.565.565,0,0,1-.294,1.048Z" transform="translate(-181.483 -204.168)" fill="#c9c6ca"/>
      <path id="Path_2192" data-name="Path 2192" d="M80.513,345.637H53.39a.565.565,0,0,1-.565-.565v-11.3a.565.565,0,0,1,.565-.565H80.513a.565.565,0,0,1,.565.565v11.3A.565.565,0,0,1,80.513,345.637Z" transform="translate(0 -310.038)" fill="#ccc"/>
      <g id="Group_236" data-name="Group 236" transform="translate(55.085 24.298)">
        <path id="Path_2193" data-name="Path 2193" d="M248.438,359.631h0a.565.565,0,0,1-.565-.565v-9.041a.565.565,0,0,1,.565-.565h0a.565.565,0,0,1,.565.565v9.041A.565.565,0,0,1,248.438,359.631Z" transform="translate(-236.572 -349.46)" fill="#0e1b3d"/>
        <path id="Path_2194" data-name="Path 2194" d="M289.073,359.631h0a.565.565,0,0,1-.565-.565v-9.041a.565.565,0,0,1,.565-.565h0a.565.565,0,0,1,.565.565v9.041A.565.565,0,0,1,289.073,359.631Z" transform="translate(-274.381 -349.46)" fill="#0e1b3d"/>
        <path id="Path_2195" data-name="Path 2195" d="M329.708,359.631h0a.565.565,0,0,1-.565-.565v-9.041a.565.565,0,0,1,.565-.565h0a.565.565,0,0,1,.565.565v9.041A.565.565,0,0,1,329.708,359.631Z" transform="translate(-312.191 -349.46)" fill="#0e1b3d"/>
        <path id="Path_2196" data-name="Path 2196" d="M370.343,359.631h0a.565.565,0,0,1-.565-.565v-9.041a.565.565,0,0,1,.565-.565h0a.565.565,0,0,1,.565.565v9.041A.565.565,0,0,1,370.343,359.631Z" transform="translate(-350 -349.46)" fill="#0e1b3d"/>
        <path id="Path_2197" data-name="Path 2197" d="M410.978,359.631h0a.565.565,0,0,1-.565-.565v-9.041a.565.565,0,0,1,.565-.565h0a.565.565,0,0,1,.565.565v9.041A.565.565,0,0,1,410.978,359.631Z" transform="translate(-387.81 -349.46)" fill="#0e1b3d"/>
        <path id="Path_2198" data-name="Path 2198" d="M85.9,359.631h0a.565.565,0,0,1-.565-.565v-9.041a.565.565,0,0,1,.565-.565h0a.565.565,0,0,1,.565.565v9.041A.565.565,0,0,1,85.9,359.631Z" transform="translate(-85.333 -349.46)" fill="#0e1b3d"/>
        <path id="Path_2199" data-name="Path 2199" d="M126.533,359.631h0a.565.565,0,0,1-.565-.565v-9.041a.565.565,0,0,1,.565-.565h0a.565.565,0,0,1,.565.565v9.041A.565.565,0,0,1,126.533,359.631Z" transform="translate(-123.143 -349.46)" fill="#0e1b3d"/>
        <path id="Path_2200" data-name="Path 2200" d="M167.168,359.631h0a.565.565,0,0,1-.565-.565v-9.041a.565.565,0,0,1,.565-.565h0a.565.565,0,0,1,.565.565v9.041A.565.565,0,0,1,167.168,359.631Z" transform="translate(-160.952 -349.46)" fill="#0e1b3d"/>
        <path id="Path_2201" data-name="Path 2201" d="M207.8,359.631h0a.565.565,0,0,1-.565-.565v-9.041a.565.565,0,0,1,.565-.565h0a.565.565,0,0,1,.565.565v9.041A.565.565,0,0,1,207.8,359.631Z" transform="translate(-198.762 -349.46)" fill="#0e1b3d"/>
      </g>
      <circle id="Ellipse_34" data-name="Ellipse 34" cx="1.413" cy="1.413" r="1.413" transform="translate(65.539 7.064)" fill="#867e88"/>
      <path id="Path_2202" data-name="Path 2202" d="M231.055,130.032h-2.807a.565.565,0,0,0-.519.788l1.211,2.825a.565.565,0,0,0,.519.343h.385a.565.565,0,0,0,.519-.343l1.211-2.825A.565.565,0,0,0,231.055,130.032Z" transform="translate(-162.699 -120.991)" fill="#ffd164"/>
      <path id="Path_2203" data-name="Path 2203" d="M229.993,133.645l-.874-2.825c-.115-.373.082-.788.375-.788h-1.247a.565.565,0,0,0-.519.788l1.211,2.825a.565.565,0,0,0,.519.343h.385a.564.564,0,0,0,.3-.09A.552.552,0,0,1,229.993,133.645Z" transform="translate(-162.699 -120.991)" fill="#ffc350"/>
    </g>
  </g>
</svg>
