<svg xmlns="http://www.w3.org/2000/svg" xmlns:xlink="http://www.w3.org/1999/xlink" width="67" height="67" viewBox="0 0 67 67">
  <defs>
    <radialGradient id="radial-gradient" cx="0.5" cy="0.5" r="0.5" gradientUnits="objectBoundingBox">
      <stop offset="0" stop-color="#5badff" stop-opacity="0.788"/>
      <stop offset="1" stop-color="#168fe4"/>
    </radialGradient>
    <filter id="Ellipse_1" x="0" y="0" width="67" height="67" filterUnits="userSpaceOnUse">
      <feOffset dy="7" input="SourceAlpha"/>
      <feGaussianBlur stdDeviation="3" result="blur"/>
      <feFlood flood-opacity="0.161"/>
      <feComposite operator="in" in2="blur"/>
      <feComposite in="SourceGraphic"/>
    </filter>
  </defs>
  <g id="Declaration" transform="translate(-29 -478.397)">
    <g transform="matrix(1, 0, 0, 1, 29, 478.4)" filter="url(#Ellipse_1)">
      <circle id="Ellipse_1-2" data-name="Ellipse 1" cx="24.5" cy="24.5" r="24.5" transform="translate(9 2)" fill="url(#radial-gradient)"/>
    </g>
    <g id="declaration-2" data-name="declaration" transform="translate(48.559 489.16)">
      <path id="Path_2179" data-name="Path 2179" d="M12.759,0a4.3,4.3,0,0,0-4.29,4.29V23.638H5.036v2.234a3.414,3.414,0,0,0,3.41,3.41H23.418a3.414,3.414,0,0,0,3.41-3.41V4.29A2.577,2.577,0,0,1,29.4,1.716V0ZM8.446,27.566a1.7,1.7,0,0,1-1.694-1.694v-.518H19.937v.518a3.39,3.39,0,0,0,.451,1.694ZM25.112,4.29V25.872a1.7,1.7,0,0,1-1.694,1.694h-.071a1.7,1.7,0,0,1-1.694-1.694V23.638H10.185V4.29a2.577,2.577,0,0,1,2.574-2.574H25.972A4.268,4.268,0,0,0,25.112,4.29Z" transform="translate(-5.036 0)" fill="#fff"/>
      <path id="Path_2180" data-name="Path 2180" d="M33.7,33.791a2.823,2.823,0,1,0,2.823,2.823A2.826,2.826,0,0,0,33.7,33.791Zm0,3.93a1.107,1.107,0,1,1,1.107-1.107A1.108,1.108,0,0,1,33.7,37.72Z" transform="translate(-18.265 -17.3)" fill="#fff"/>
      <path id="Path_2181" data-name="Path 2181" d="M19.057,13.272H30.6v1.716H19.057Z" transform="translate(-12.214 -6.795)" fill="#fff"/>
      <path id="Path_2182" data-name="Path 2182" d="M19.057,20.3H30.6v1.716H19.057Z" transform="translate(-12.214 -10.395)" fill="#fff"/>
      <path id="Path_2183" data-name="Path 2183" d="M19.057,27.338H30.6v1.716H19.057Z" transform="translate(-12.214 -13.996)" fill="#fff"/>
      <path id="Path_2184" data-name="Path 2184" d="M19.057,34.371h3.922v1.716H19.057Z" transform="translate(-12.214 -17.597)" fill="#fff"/>
    </g>
  </g>
</svg>
