<svg xmlns="http://www.w3.org/2000/svg" width="7.918" height="10.355" viewBox="0 0 7.918 10.355">
  <g id="delete" transform="translate(-60)">
    <path id="XMLID_1476_" d="M93.086,171.136A.911.911,0,0,0,94,172h3.7a.911.911,0,0,0,.912-.868L99.148,165h-6.6Zm3.678-4.614h.609v3.35h-.609Zm-1.218,0h.609v3.35h-.609Zm-1.218,0h.609v3.35h-.609Z" transform="translate(-31.891 -161.65)" fill="#ea2428"/>
    <path id="XMLID_1481_" d="M65.482,1.523V.914A.915.915,0,0,0,64.568,0H63.35a.915.915,0,0,0-.914.914v.609H60V2.741h7.918V1.523Zm-2.436,0V.914a.3.3,0,0,1,.3-.3h1.218a.3.3,0,0,1,.3.3v.609Z" fill="#ea2428"/>
  </g>
</svg>
