<svg xmlns="http://www.w3.org/2000/svg" width="25.541" height="30.649" viewBox="0 0 25.541 30.649">
  <g id="Declaration_SVG" data-name="Declaration SVG" transform="translate(-40)">
    <g id="Group_16412" data-name="Group 16412" transform="translate(46.13 21.965)">
      <g id="Group_16411" data-name="Group 16411" transform="translate(0)">
        <path id="Path_2406" data-name="Path 2406" d="M137.532,344h-1.022a.511.511,0,0,0,0,1.022h1.022a.511.511,0,1,0,0-1.022Z" transform="translate(-136 -344)" fill="#676767"/>
      </g>
    </g>
    <g id="Group_16414" data-name="Group 16414" transform="translate(49.195 21.965)">
      <g id="Group_16413" data-name="Group 16413" transform="translate(0)">
        <path id="Path_2407" data-name="Path 2407" d="M196.771,344h-12.26a.511.511,0,0,0,0,1.022h12.26a.511.511,0,0,0,0-1.022Z" transform="translate(-184 -344)" fill="#676767"/>
      </g>
    </g>
    <g id="Group_16416" data-name="Group 16416" transform="translate(46.13 18.9)">
      <g id="Group_16415" data-name="Group 16415" transform="translate(0)">
        <path id="Path_2408" data-name="Path 2408" d="M137.532,296h-1.022a.511.511,0,1,0,0,1.022h1.022a.511.511,0,1,0,0-1.022Z" transform="translate(-136 -296)" fill="#676767"/>
      </g>
    </g>
    <g id="Group_16418" data-name="Group 16418" transform="translate(49.195 18.9)">
      <g id="Group_16417" data-name="Group 16417" transform="translate(0)">
        <path id="Path_2409" data-name="Path 2409" d="M196.771,296h-12.26a.511.511,0,1,0,0,1.022h12.26a.511.511,0,1,0,0-1.022Z" transform="translate(-184 -296)" fill="#676767"/>
      </g>
    </g>
    <g id="Group_16420" data-name="Group 16420" transform="translate(46.13 15.835)">
      <g id="Group_16419" data-name="Group 16419" transform="translate(0)">
        <path id="Path_2410" data-name="Path 2410" d="M137.532,248h-1.022a.511.511,0,1,0,0,1.022h1.022a.511.511,0,1,0,0-1.022Z" transform="translate(-136 -248)" fill="#676767"/>
      </g>
    </g>
    <g id="Group_16422" data-name="Group 16422" transform="translate(49.195 15.835)">
      <g id="Group_16421" data-name="Group 16421" transform="translate(0)">
        <path id="Path_2411" data-name="Path 2411" d="M196.771,248h-12.26a.511.511,0,0,0,0,1.022h12.26a.511.511,0,1,0,0-1.022Z" transform="translate(-184 -248)" fill="#676767"/>
      </g>
    </g>
    <g id="Group_16424" data-name="Group 16424" transform="translate(46.13 12.771)">
      <g id="Group_16423" data-name="Group 16423" transform="translate(0)">
        <path id="Path_2412" data-name="Path 2412" d="M137.532,200h-1.022a.511.511,0,1,0,0,1.022h1.022a.511.511,0,1,0,0-1.022Z" transform="translate(-136 -200)" fill="#676767"/>
      </g>
    </g>
    <g id="Group_16426" data-name="Group 16426" transform="translate(49.195 12.771)">
      <g id="Group_16425" data-name="Group 16425" transform="translate(0)">
        <path id="Path_2413" data-name="Path 2413" d="M196.771,200h-12.26a.511.511,0,0,0,0,1.022h12.26a.511.511,0,0,0,0-1.022Z" transform="translate(-184 -200)" fill="#676767"/>
      </g>
    </g>
    <g id="Group_16428" data-name="Group 16428" transform="translate(46.13 9.706)">
      <g id="Group_16427" data-name="Group 16427" transform="translate(0)">
        <path id="Path_2414" data-name="Path 2414" d="M137.532,152h-1.022a.511.511,0,0,0,0,1.022h1.022a.511.511,0,1,0,0-1.022Z" transform="translate(-136 -152)" fill="#676767"/>
      </g>
    </g>
    <g id="Group_16430" data-name="Group 16430" transform="translate(49.195 9.706)">
      <g id="Group_16429" data-name="Group 16429" transform="translate(0)">
        <path id="Path_2415" data-name="Path 2415" d="M196.771,152h-12.26a.511.511,0,0,0,0,1.022h12.26a.511.511,0,0,0,0-1.022Z" transform="translate(-184 -152)" fill="#676767"/>
      </g>
    </g>
    <g id="Group_16432" data-name="Group 16432" transform="translate(40)">
      <g id="Group_16431" data-name="Group 16431">
        <path id="Path_2416" data-name="Path 2416" d="M65.534,7.63a.483.483,0,0,0-.026-.131c-.006-.016-.01-.032-.017-.048a.511.511,0,0,0-.1-.15L58.238.15a.511.511,0,0,0-.15-.1c-.016-.007-.032-.011-.048-.017A.509.509,0,0,0,57.908,0c-.009,0-.018,0-.03,0h-14.3a.511.511,0,0,0-.511.511V2.043H40.511A.511.511,0,0,0,40,2.554V30.138a.511.511,0,0,0,.511.511H61.965a.511.511,0,0,0,.511-.511V27.584H65.03a.511.511,0,0,0,.511-.511V7.662C65.541,7.651,65.535,7.641,65.534,7.63ZM58.39,1.744,63.8,7.151H58.39Zm3.065,27.884H41.022V3.065h2.043V27.073a.511.511,0,0,0,.511.511H61.454Zm3.065-3.065H44.087V1.022H57.368V7.662a.511.511,0,0,0,.511.511h6.641Z" transform="translate(-40)" fill="#676767"/>
      </g>
    </g>
    <g id="Group_16434" data-name="Group 16434" transform="translate(46.13 4.597)">
      <g id="Group_16433" data-name="Group 16433" transform="translate(0)">
        <path id="Path_2417" data-name="Path 2417" d="M139.576,72h-3.065a.511.511,0,0,0-.511.511v3.065a.511.511,0,0,0,.511.511h3.065a.511.511,0,0,0,.511-.511V72.511A.511.511,0,0,0,139.576,72Zm-.511,3.065h-2.043V73.022h2.043Z" transform="translate(-136 -72)" fill="#676767"/>
      </g>
    </g>
  </g>
</svg>
