<svg xmlns="http://www.w3.org/2000/svg" width="8.406" height="11.525" viewBox="0 0 8.406 11.525">
  <path id="Path_2219" data-name="Path 2219" d="M12.482,13.648h-2.29l-.107-7.773c0-.09.072.058,0,0s.111,0,0,0H7.138c-.111,0,.071-.058,0,0s0-.09,0,0v7.773H4.848a.361.361,0,0,0-.358.194.257.257,0,0,0,.083.339l3.817,3.1a.489.489,0,0,0,.274.087.454.454,0,0,0,.274-.087l3.8-3.092a.332.332,0,0,0,.119-.232.276.276,0,0,0-.107-.224A.422.422,0,0,0,12.482,13.648Z" transform="translate(-4.457 -5.845)" fill="#87a3ea"/>
</svg>
