<svg xmlns="http://www.w3.org/2000/svg" width="35.093" height="35.093" viewBox="0 0 35.093 35.093">
  <path id="Path_22" data-name="Path 22" d="M35.093,17.546A17.546,17.546,0,1,1,17.546,0,17.523,17.523,0,0,1,35.093,17.546ZM16.611,27.84c1.755,0,1.872-1.4,1.755-1.4-1.287-.117-1.521-.585-1.287-2.106L19.3,13.569H16.494l-2.34,10.762C13.8,26.437,14.505,27.84,16.611,27.84Zm2.34-17.2A1.689,1.689,0,0,0,20.7,8.773c0-.819-.585-1.287-1.755-1.287A1.689,1.689,0,0,0,17.2,9.358C17.2,10.06,17.9,10.645,18.95,10.645Z" fill="#fff"/>
</svg>
