<svg xmlns="http://www.w3.org/2000/svg" width="16.106" height="16.107" viewBox="0 0 16.106 16.107">
  <g id="Interval" transform="translate(0)">
    <g id="Group_16299" data-name="Group 16299" transform="translate(0)">
      <g id="Group_16298" data-name="Group 16298" transform="translate(0)">
        <path id="Path_43" data-name="Path 43" d="M101.921,107.811a5.906,5.906,0,1,0-5.906-5.906A5.906,5.906,0,0,0,101.921,107.811Zm-4.563-6.174h-.792a5.366,5.366,0,0,1,5.087-5.087v.792a.268.268,0,1,0,.537,0v-.792a5.366,5.366,0,0,1,5.087,5.087h-1.06a.268.268,0,1,0,0,.537h1.06a5.366,5.366,0,0,1-5.087,5.087v-.792a.268.268,0,0,0-.537,0v.792a5.366,5.366,0,0,1-5.087-5.087h.792a.268.268,0,1,0,0-.537Z" transform="translate(-92.794 -92.779)" fill="#0568ae"/>
        <path id="Path_44" data-name="Path 44" d="M53.843,5.642q-.12-.208-.254-.407l.663-.663a.268.268,0,0,0,0-.38L52.734,2.676a.268.268,0,0,0-.38,0l-.664.662a6.938,6.938,0,0,0-3.624-1.183V.537h1.879a.268.268,0,1,0,0-.537H45.651a.268.268,0,0,0,0,.537H47.53v1.62a6.971,6.971,0,0,0-5.771,3.481H40.282a.268.268,0,1,0,0,.537h1.611c.007,0,.013,0,.02,0a.266.266,0,0,0,.234-.134,6.442,6.442,0,1,1,0,6.185.266.266,0,0,0-.234-.136c-.007,0-.013,0-.02,0H40.282a.268.268,0,1,0,0,.537h1.476A6.976,6.976,0,0,0,53.843,5.642ZM52.13,3.66l.415-.415,1.137,1.137-.416.416A7.053,7.053,0,0,0,52.13,3.66Z" transform="translate(-38.672)" fill="#0568ae"/>
        <path id="Path_45" data-name="Path 45" d="M2.7,264.268A.268.268,0,0,0,2.431,264H.283a.268.268,0,0,0,0,.537H2.431A.268.268,0,0,0,2.7,264.268Z" transform="translate(-0.015 -255.142)" fill="#0568ae"/>
        <path id="Path_46" data-name="Path 46" d="M16.283,216.537h1.879a.268.268,0,1,0,0-.537H16.283a.268.268,0,1,0,0,.537Z" transform="translate(-15.478 -208.752)" fill="#0568ae"/>
        <path id="Path_47" data-name="Path 47" d="M18.431,312.268a.268.268,0,0,0-.268-.268H16.283a.268.268,0,0,0,0,.537h1.879A.268.268,0,0,0,18.431,312.268Z" transform="translate(-15.478 -301.531)" fill="#0568ae"/>
        <path id="Path_48" data-name="Path 48" d="M196.72,205.085a.268.268,0,0,0,.38,0l3.731-3.731a.268.268,0,0,0-.38-.38l-3.541,3.542-1.6-1.6a.268.268,0,0,0-.38.38Z" transform="translate(-188.32 -194.157)" fill="#0568ae"/>
      </g>
    </g>
  </g>
</svg>
