<svg xmlns="http://www.w3.org/2000/svg" width="11.758" height="16.722" viewBox="0 0 11.758 16.722">
  <g id="location_icon" data-name="location icon" transform="translate(-76)">
    <path id="Path_2368" data-name="Path 2368" d="M81.879,0A5.884,5.884,0,0,0,76,5.879a5.8,5.8,0,0,0,.882,3.086l4.6,7.526a.464.464,0,0,0,.333.225.488.488,0,0,0,.5-.235l4.612-7.594a5.8,5.8,0,0,0,.833-3.008A5.884,5.884,0,0,0,81.879,0Zm0,8.818a2.939,2.939,0,1,1,2.939-2.939A2.936,2.936,0,0,1,81.879,8.818Z" fill="#007fff"/>
    <path id="Path_2369" data-name="Path 2369" d="M256,0V2.939a2.939,2.939,0,0,1,0,5.879v7.9a.485.485,0,0,0,.434-.241l4.612-7.594a5.8,5.8,0,0,0,.833-3.008A5.884,5.884,0,0,0,256,0Z" transform="translate(-174.121)" fill="#007fff"/>
  </g>
</svg>
