<svg xmlns="http://www.w3.org/2000/svg" width="25.539" height="25.539" viewBox="0 0 25.539 25.539">
  <g id="LOGOUT" transform="translate(-2 -2)">
    <g id="exit2" transform="translate(2 2)">
      <path id="Path_2459" data-name="Path 2459" d="M12.554,12.216a2.561,2.561,0,0,0,2.554-2.554V4.554a2.554,2.554,0,0,0-5.108,0V9.662A2.561,2.561,0,0,0,12.554,12.216Z" transform="translate(0.216 -2)" fill="#fff"/>
      <path id="Path_2460" data-name="Path 2460" d="M23.836,5.011h0a1.744,1.744,0,0,0-1.4-.511,1.964,1.964,0,0,0-1.915,1.915,2.678,2.678,0,0,0,.511,1.4h0a8.677,8.677,0,0,1,2.554,6.257,8.939,8.939,0,1,1-17.877,0A8.575,8.575,0,0,1,8.385,7.82h0a2.051,2.051,0,0,0,.638-1.4A1.964,1.964,0,0,0,7.108,4.5a2.678,2.678,0,0,0-1.4.511h0a12.77,12.77,0,1,0,18.133,0Z" transform="translate(-2 -1.308)" fill="#fff"/>
    </g>
  </g>
</svg>
