<svg xmlns="http://www.w3.org/2000/svg" width="19.65" height="19.65" viewBox="0 0 19.65 19.65">
  <g id="POD_download_" data-name="POD download " transform="translate(-24 -24)">
    <path id="Path_2385" data-name="Path 2385" d="M145.621,39.287a1.016,1.016,0,0,0,1.437,0l3.833-3.833a1.016,1.016,0,0,0-1.437-1.437l-2.1,2.1v-11.1a1.016,1.016,0,1,0-2.033,0v11.1l-2.1-2.1a1.016,1.016,0,1,0-1.437,1.437Z" transform="translate(-112.515)" fill="#168fe4"/>
    <path id="Path_2386" data-name="Path 2386" d="M42.634,232a1.016,1.016,0,0,0-1.016,1.016v7.792H26.033v-7.792a1.016,1.016,0,1,0-2.033,0v8.131a1.694,1.694,0,0,0,1.694,1.694H41.956a1.694,1.694,0,0,0,1.694-1.694v-8.131A1.016,1.016,0,0,0,42.634,232Z" transform="translate(0 -199.191)" fill="#168fe4"/>
  </g>
</svg>
