<svg xmlns="http://www.w3.org/2000/svg" width="14" height="14" viewBox="0 0 14 14">
  <g id="refresh" transform="translate(-0.001)">
    <g id="Group_16416" data-name="Group 16416" transform="translate(0.773)">
      <g id="Group_16415" data-name="Group 16415">
        <path id="Path_2403" data-name="Path 2403" d="M40.968,1.931a.547.547,0,0,0-.594.495l-.072.795a6.9,6.9,0,0,0-12,.576.547.547,0,1,0,.974.5,5.814,5.814,0,0,1,10.114-.482l-.78-.557a.547.547,0,0,0-.636.89l2.365,1.689a.547.547,0,0,0,.862-.4l.266-2.913A.547.547,0,0,0,40.968,1.931Z" transform="translate(-28.237)" fill="#1360D2"/>
      </g>
    </g>
    <g id="Group_16418" data-name="Group 16418" transform="translate(0.001 8.064)">
      <g id="Group_16417" data-name="Group 16417">
        <path id="Path_2404" data-name="Path 2404" d="M12.931,296.316a.547.547,0,0,0-.736.238,5.814,5.814,0,0,1-10.114.482l.78.557a.547.547,0,1,0,.636-.89l-2.365-1.689a.547.547,0,0,0-.862.4L0,298.323a.547.547,0,0,0,1.089.1l.072-.795a6.9,6.9,0,0,0,12-.576A.547.547,0,0,0,12.931,296.316Z" transform="translate(-0.001 -294.913)" fill="#1360D2"/>
      </g>
    </g>
  </g>
</svg>
