<svg xmlns="http://www.w3.org/2000/svg" width="21.002" height="21.375" viewBox="0 0 21.002 21.375">
  <g id="sort-by-attributes-interface-button-option" transform="translate(-4.457)">
    <g id="Group_241" data-name="Group 241" transform="translate(4.457)">
      <path id="Path_2217" data-name="Path 2217" d="M251.741,149.234h5.344a.368.368,0,0,0,.382-.382v-2.29a.368.368,0,0,0-.382-.382h-5.344a.367.367,0,0,0-.382.382v2.29a.367.367,0,0,0,.382.382Z" transform="translate(-241.044 -140.074)" fill="#fff"/>
      <path id="Path_2218" data-name="Path 2218" d="M251.744,3.053H254.8a.367.367,0,0,0,.381-.382V.382A.367.367,0,0,0,254.8,0h-3.053a.367.367,0,0,0-.382.382v2.29a.367.367,0,0,0,.382.382Z" transform="translate(-241.047 0)" fill="#fff"/>
      <path id="Path_2219" data-name="Path 2219" d="M12.482,16.794h-2.29V.382A.367.367,0,0,0,9.81,0H7.52a.367.367,0,0,0-.382.382V16.794H4.848a.354.354,0,0,0-.358.238.363.363,0,0,0,.083.418L8.39,21.267a.429.429,0,0,0,.274.107.4.4,0,0,0,.274-.107l3.8-3.805a.447.447,0,0,0,.119-.286.367.367,0,0,0-.382-.382Z" transform="translate(-4.457 0)" fill="#fff"/>
      <path id="Path_2220" data-name="Path 2220" d="M261.942,438.643a.371.371,0,0,0-.274-.107h-9.924a.368.368,0,0,0-.382.382v2.29a.367.367,0,0,0,.382.382h9.924a.367.367,0,0,0,.382-.382v-2.29A.371.371,0,0,0,261.942,438.643Z" transform="translate(-241.047 -420.215)" fill="#fff"/>
      <path id="Path_2221" data-name="Path 2221" d="M251.741,295.417h7.634a.367.367,0,0,0,.382-.381v-2.29a.367.367,0,0,0-.382-.381h-7.634a.367.367,0,0,0-.382.381v2.29a.367.367,0,0,0,.382.381Z" transform="translate(-241.044 -280.15)" fill="#fff"/>
    </g>
  </g>
</svg>
