<svg xmlns="http://www.w3.org/2000/svg" width="13.38" height="12.823" viewBox="0 0 13.38 12.823">
  <path id="border_star" data-name="border star" d="M3,13.315a.712.712,0,0,1-.693-.87l.861-3.792L.244,6.093a.712.712,0,0,1,.4-1.244L4.51,4.5,6.037.925a.711.711,0,0,1,1.308,0L8.872,4.5l3.862.351a.712.712,0,0,1,.4,1.244l-2.919,2.56.861,3.792a.711.711,0,0,1-1.058.768l-3.331-1.99L3.36,13.214a.713.713,0,0,1-.365.1Zm3.7-2.95a.713.713,0,0,1,.365.1l3.143,1.88L9.386,8.767a.711.711,0,0,1,.225-.693l2.756-2.417L8.721,5.326a.71.71,0,0,1-.591-.431L6.691,1.522,5.249,4.9a.708.708,0,0,1-.589.429l-3.647.331L3.769,8.073a.71.71,0,0,1,.225.694l-.812,3.579,3.143-1.879a.713.713,0,0,1,.365-.1ZM4.48,4.567h0Zm4.42,0h0Zm0,0" transform="translate(-0.001 -0.492)"/>
</svg>
