<svg xmlns="http://www.w3.org/2000/svg" width="31.249" height="28.997" viewBox="0 0 31.249 28.997">
  <g id="Status" transform="translate(0.162 -18.406)">
    <path id="Path_2380" data-name="Path 2380" d="M145.244,424.822H134.8a5.012,5.012,0,0,1,0,1.833h10.446a3.187,3.187,0,0,1,0-1.833Z" transform="translate(-126.714 -381.585)" fill="#fff"/>
    <path id="Path_2381" data-name="Path 2381" d="M334.655,280.774h-5.65a3.185,3.185,0,0,1-.182,1.833h5.832a3.484,3.484,0,0,1,0,6.968h-1.121a3.185,3.185,0,0,1,0,1.833h1.121a5.317,5.317,0,0,0,0-10.634Z" transform="translate(-308.885 -246.338)" fill="#fff"/>
    <path id="Path_2382" data-name="Path 2382" d="M85.99,190.8H80.516a2.011,2.011,0,0,1,0-4.022H95.946c-.522-.566-1.065-1.186-1.585-1.833H80.514a3.844,3.844,0,0,0,0,7.688h5.656a3.186,3.186,0,0,1-.182-1.833Z" transform="translate(-72.139 -156.362)" fill="#fff"/>
    <ellipse id="Ellipse_1106" data-name="Ellipse 1106" cx="3.242" cy="3.244" rx="3.242" ry="3.244" transform="translate(-0.162 47.383) rotate(-89.828)" fill="#fff"/>
    <path id="Path_2383" data-name="Path 2383" d="M348.789,22.8c0,1.3,1.539,3.726,4.116,6.5a.381.381,0,0,0,.56,0c2.577-2.773,4.116-5.2,4.116-6.5a4.4,4.4,0,0,0-8.792,0Zm4.4-.713a.913.913,0,1,1-.913.913A.929.929,0,0,1,353.185,22.087Z" transform="translate(-327.631)" fill="#fff"/>
    <path id="Path_2384" data-name="Path 2384" d="M336.291,418.9a1.361,1.361,0,1,0-1.361,1.361A1.363,1.363,0,0,0,336.291,418.9Z" transform="translate(-313.34 -374.746)" fill="#fff"/>
    <path id="Path_2385" data-name="Path 2385" d="M260.942,269.907a1.361,1.361,0,1,0-1.362,1.361A1.363,1.363,0,0,0,260.942,269.907Z" transform="translate(-242.595 -234.857)" fill="#fff"/>
  </g>
</svg>
