<svg id="upload" xmlns="http://www.w3.org/2000/svg" width="25.892" height="30.959" viewBox="0 0 25.892 30.959">
  <path id="Path_454" data-name="Path 454" d="M64.922,58.232V73.286a2.254,2.254,0,0,1-2.254,2.254H44.153A2.254,2.254,0,0,1,41.9,73.286V49.7a2.254,2.254,0,0,1,2.254-2.254h9.987Z" transform="translate(-41.899 -44.581)" fill="#bed8fb"/>
  <path id="Path_455" data-name="Path 455" d="M91.6,28.09a2.254,2.254,0,0,1-2.254-2.254V2.254A2.254,2.254,0,0,1,91.6,0h9.987c1.717,0,10.783,9.065,10.783,10.782V25.836a2.254,2.254,0,0,1-2.254,2.254Z" transform="translate(-86.48 0)" fill="#168fe4"/>
  <path id="Path_456" data-name="Path 456" d="M287.75,10.782v.953A3.635,3.635,0,0,0,284.115,8.1H281.9a2.254,2.254,0,0,1-2.254-2.254V3.635A3.635,3.635,0,0,0,276.014,0h.953a6.474,6.474,0,0,1,4.577,1.9l4.309,4.309A6.474,6.474,0,0,1,287.75,10.782Z" transform="translate(-261.858 0)" fill="#bed8fb"/>
  <g id="Group_587" data-name="Group 587" transform="translate(19.394 24.31) rotate(180)">
    <path id="Path_457" data-name="Path 457" d="M1.986,7.1V.515A.515.515,0,0,1,2.5,0H5.959a.515.515,0,0,1,.515.515V7.1h1.47a.515.515,0,0,1,.364.879L5.023,11.268a1.121,1.121,0,0,1-1.586,0L.152,7.983A.515.515,0,0,1,.516,7.1Z" transform="translate(0.784)" fill="#fff"/>
    <path id="Path_458" data-name="Path 458" d="M1,0H9.024a1,1,0,0,1,1,1v.028a1,1,0,0,1-1,1H1a1,1,0,0,1-1-1V1A1,1,0,0,1,1,0Z" transform="translate(0 13.076)" fill="#fff"/>
  </g>
</svg>
