<svg xmlns="http://www.w3.org/2000/svg" width="103.119" height="86.273" viewBox="0 0 103.119 86.273">
  <g id="are_you_sure_icon" data-name="are you sure icon" transform="translate(-212.488 -313.039)">
    <g id="undraw_Security_on_ff2u" transform="translate(212.488 313.039)">
      <path id="Path_2498" data-name="Path 2498" d="M420.235,104Z" transform="translate(-336.11 -82.8)" fill="#3f3d56"/>
      <path id="Path_2502" data-name="Path 2502" d="M324.779,108.077a.441.441,0,0,1-.246-.533.21.21,0,0,0,.01-.049h0a.221.221,0,0,0-.4-.147h0a.212.212,0,0,0-.024.043.441.441,0,0,1-.533.246.212.212,0,0,0-.049-.01h0a.221.221,0,0,0-.147.4h0a.211.211,0,0,0,.043.024.441.441,0,0,1,.246.533.214.214,0,0,0-.01.049h0a.221.221,0,0,0,.4.147h0a.212.212,0,0,0,.024-.043.441.441,0,0,1,.533-.246.212.212,0,0,0,.049.01h0a.221.221,0,0,0,.147-.4h0A.213.213,0,0,0,324.779,108.077Z" transform="translate(-304.946 -102.323)" fill="#4d8af0" opacity="0.5"/>
      <path id="Path_2503" data-name="Path 2503" d="M178.779,433.077a.441.441,0,0,1-.246-.533.213.213,0,0,0,.01-.049h0a.221.221,0,0,0-.4-.147h0a.213.213,0,0,0-.024.043.441.441,0,0,1-.533.246.212.212,0,0,0-.049-.01h0a.221.221,0,0,0-.147.4h0a.213.213,0,0,0,.043.024.441.441,0,0,1,.246.533.212.212,0,0,0-.01.049h0a.221.221,0,0,0,.4.147h0a.21.21,0,0,0,.024-.043.441.441,0,0,1,.533-.246.212.212,0,0,0,.049.01h0a.221.221,0,0,0,.147-.4h0a.212.212,0,0,0-.043-.024Z" transform="translate(-176.465 -388.326)" fill="#4d8af0" opacity="0.5"/>
      <ellipse id="Ellipse_1199" data-name="Ellipse 1199" cx="0.72" cy="0.72" rx="0.72" ry="0.72" transform="translate(89.08 29.758)" fill="#f55f44" opacity="0.5"/>
      <ellipse id="Ellipse_1200" data-name="Ellipse 1200" cx="0.72" cy="0.72" rx="0.72" ry="0.72" transform="translate(13.846 81.234)" fill="#f55f44" opacity="0.5"/>
      <ellipse id="Ellipse_1201" data-name="Ellipse 1201" cx="0.72" cy="0.72" rx="0.72" ry="0.72" transform="translate(101.319 57.475)" fill="#f55f44" opacity="0.5"/>
      <path id="Path_2504" data-name="Path 2504" d="M863.779,137.077a.441.441,0,0,1-.246-.533.212.212,0,0,0,.01-.049h0a.221.221,0,0,0-.4-.147h0a.212.212,0,0,0-.024.043.441.441,0,0,1-.533.246.211.211,0,0,0-.049-.01h0a.221.221,0,0,0-.147.4h0a.212.212,0,0,0,.043.024.441.441,0,0,1,.246.533.215.215,0,0,0-.01.049h0a.221.221,0,0,0,.4.147h0a.211.211,0,0,0,.024-.043.441.441,0,0,1,.533-.246.212.212,0,0,0,.049.01h0a.221.221,0,0,0,.147-.4h0A.212.212,0,0,0,863.779,137.077Z" transform="translate(-779.272 -127.843)" fill="#4d8af0" opacity="0.5"/>
      <path id="Path_2505" data-name="Path 2505" d="M963.779,765.077a.441.441,0,0,1-.246-.533.215.215,0,0,0,.01-.049h0a.221.221,0,0,0-.4-.147h0a.213.213,0,0,0-.025.043.441.441,0,0,1-.533.246.209.209,0,0,0-.049-.01h0a.221.221,0,0,0-.146.4h0a.213.213,0,0,0,.043.024.441.441,0,0,1,.246.533.215.215,0,0,0-.01.049h0a.221.221,0,0,0,.4.146h0a.21.21,0,0,0,.024-.043.441.441,0,0,1,.533-.246.213.213,0,0,0,.049.01h0a.221.221,0,0,0,.147-.4h0A.215.215,0,0,0,963.779,765.077Z" transform="translate(-867.273 -680.489)" fill="#4d8af0" opacity="0.5"/>
      <path id="Path_2506" data-name="Path 2506" d="M171.779,243.077a.441.441,0,0,1-.246-.533.213.213,0,0,0,.01-.049h0a.221.221,0,0,0-.4-.147h0a.211.211,0,0,0-.024.043.441.441,0,0,1-.533.246.212.212,0,0,0-.049-.01h0a.221.221,0,0,0-.147.4h0a.211.211,0,0,0,.043.024.441.441,0,0,1,.246.533.21.21,0,0,0-.01.049h0a.221.221,0,0,0,.4.147h0a.212.212,0,0,0,.024-.043.441.441,0,0,1,.533-.246.211.211,0,0,0,.049.01h0a.221.221,0,0,0,.147-.4h0A.211.211,0,0,0,171.779,243.077Z" transform="translate(-170.305 -221.124)" fill="#4d8af0" opacity="0.5"/>
      <ellipse id="Ellipse_1202" data-name="Ellipse 1202" cx="0.72" cy="0.72" rx="0.72" ry="0.72" transform="translate(8.807 33.357)" fill="#47e6b1" opacity="0.5"/>
      <ellipse id="Ellipse_1203" data-name="Ellipse 1203" cx="0.72" cy="0.72" rx="0.72" ry="0.72" transform="translate(101.679 39.117)" fill="#47e6b1" opacity="0.5"/>
      <g id="Group_16454" data-name="Group 16454" transform="translate(69.162)" opacity="0.5">
        <rect id="Rectangle_2459" data-name="Rectangle 2459" width="0.36" height="2.04" transform="translate(0.84)" fill="#47e6b1"/>
        <rect id="Rectangle_2460" data-name="Rectangle 2460" width="0.36" height="2.04" transform="translate(2.04 0.84) rotate(90)" fill="#47e6b1"/>
      </g>
      <g id="Group_16455" data-name="Group 16455" transform="translate(70.482 79.914)" opacity="0.5">
        <rect id="Rectangle_2461" data-name="Rectangle 2461" width="0.36" height="2.04" transform="translate(0.84)" fill="#47e6b1"/>
        <rect id="Rectangle_2462" data-name="Rectangle 2462" width="0.36" height="2.04" transform="translate(2.04 0.84) rotate(90)" fill="#47e6b1"/>
      </g>
      <g id="Group_16456" data-name="Group 16456" transform="translate(2.327 84.233)" opacity="0.5">
        <rect id="Rectangle_2463" data-name="Rectangle 2463" width="0.36" height="2.04" transform="translate(0.84)" fill="#47e6b1"/>
        <rect id="Rectangle_2464" data-name="Rectangle 2464" width="0.36" height="2.04" transform="translate(2.04 0.84) rotate(90)" fill="#47e6b1"/>
      </g>
      <g id="Group_16457" data-name="Group 16457" transform="translate(84.281 47.516)" opacity="0.5">
        <rect id="Rectangle_2465" data-name="Rectangle 2465" width="0.36" height="2.04" transform="translate(0.84)" fill="#47e6b1"/>
        <rect id="Rectangle_2466" data-name="Rectangle 2466" width="0.36" height="2.04" transform="translate(2.04 0.84) rotate(90)" fill="#47e6b1"/>
      </g>
      <path id="Path_2507" data-name="Path 2507" d="M793.243,116.4l.773.709,1.1-1.611.387.322-1.482,1.933-1.1-1.224Z" transform="translate(-697.779 -101.641)" fill="#47e6b1" opacity="0.5"/>
    </g>
    <g id="undraw_pending_approval_xuu9" transform="translate(184.889 314.205)">
      <path id="Path_336" data-name="Path 336" d="M642.832,299.065a1.942,1.942,0,0,0-1.776-1.188h-35.44A1.922,1.922,0,0,0,603.7,299.8v44.835a1.922,1.922,0,0,0,1.921,1.921h35.441a1.924,1.924,0,0,0,1.921-1.921V299.8a1.886,1.886,0,0,0-.146-.733Zm-.281,45.568a1.5,1.5,0,0,1-1.495,1.495h-35.44a1.5,1.5,0,0,1-1.495-1.494V299.8a1.5,1.5,0,0,1,1.495-1.495h35.441a1.5,1.5,0,0,1,1.387.94,1.67,1.67,0,0,1,.056.169,1.483,1.483,0,0,1,.051.386Z" transform="translate(-549.779 -281.424)" fill="#3f3d56"/>
      <path id="Path_337" data-name="Path 337" d="M713.359,342.687H702.683a.854.854,0,1,1,0-1.708h10.675a.854.854,0,0,1,0,1.708Z" transform="translate(-627.701 -315.648)" fill="#3f3d56"/>
      <path id="Path_338" data-name="Path 338" d="M713.359,364.456H702.683a.854.854,0,1,1,0-1.708h10.675a.854.854,0,0,1,0,1.708Z" transform="translate(-627.701 -332.934)" fill="#3f3d56"/>
      <path id="Path_339" data-name="Path 339" d="M645.6,340.535h-7.8a.962.962,0,0,1-.961-.961v-9.206a.962.962,0,0,1,.961-.961h7.8a.962.962,0,0,1,.961.961v9.206A.962.962,0,0,1,645.6,340.535Z" transform="translate(-576.097 -306.46)" fill="#6c63ff"/>
      <path id="Path_340" data-name="Path 340" d="M661.143,409.031H637.017a.854.854,0,1,1,0-1.708h24.125a.854.854,0,1,1,0,1.708Z" transform="translate(-575.56 -368.328)" fill="#ccc"/>
      <path id="Path_341" data-name="Path 341" d="M661.143,430.8H637.017a.854.854,0,1,1,0-1.708h24.125a.854.854,0,1,1,0,1.708Z" transform="translate(-575.56 -385.613)" fill="#ccc"/>
      <path id="Path_342" data-name="Path 342" d="M661.143,452.568H637.017a.854.854,0,1,1,0-1.708h24.125a.854.854,0,1,1,0,1.708Z" transform="translate(-575.56 -402.898)" fill="#ccc"/>
      <path id="Path_343" data-name="Path 343" d="M661.143,474.337H637.017a.854.854,0,1,1,0-1.708h24.125a.854.854,0,1,1,0,1.708Z" transform="translate(-575.56 -420.184)" fill="#ccc"/>
      <path id="Path_344" data-name="Path 344" d="M661.143,496.106H637.017a.854.854,0,1,1,0-1.708h24.125a.854.854,0,1,1,0,1.708Z" transform="translate(-575.56 -437.469)" fill="#ccc"/>
      <circle id="Ellipse_44" data-name="Ellipse 44" cx="12.226" cy="12.226" r="12.226" transform="translate(81.858 0)" fill="#6c63ff"/>
      <circle id="Ellipse_1205" data-name="Ellipse 1205" cx="1.439" cy="1.439" r="1.439" transform="translate(92.409 17.764)" fill="#fff"/>
      <path id="Path_2515" data-name="Path 2515" d="M780.936,238.342a4.163,4.163,0,0,0-4.121,4.091c0,.021,0,.167,0,.358a1.055,1.055,0,0,0,1.055,1.055h0a1.056,1.056,0,0,0,1.056-1.056h0c0-.13,0-.22,0-.225a2,2,0,1,1,3.081,1.685h0a5.4,5.4,0,0,0-1.96,2.293h0a2.94,2.94,0,0,0-.121.837c0,.117.007,1.136.02,1.963a1.088,1.088,0,0,0,1.088,1.07h0a1.088,1.088,0,0,0,1.088-1.088v-.007c0-.758-.007-1.64-.007-1.7a3.335,3.335,0,0,1,1.431-2.155,4.341,4.341,0,0,0,1.493-2.377,2.716,2.716,0,0,0,.078-.589,4.152,4.152,0,0,0-4.152-4.152Z" transform="translate(-687.242 -234.15)" fill="#fff"/>
    </g>
  </g>
</svg>
