<svg xmlns="http://www.w3.org/2000/svg" width="299.806" height="300.381" viewBox="0 0 299.806 300.381">
  <path id="path0" d="M233.712,30.744c-.6.1-4.02.444-7.605.756-6.413.558-13.882,1.665-15.482,2.292a31.868,31.868,0,0,1-3.531.857c-1.494.295-4.061.938-5.7,1.43s-3.721,1.105-4.617,1.365a51.241,51.241,0,0,0-6.383,2.272,4.47,4.47,0,0,1-1.524.47,15.922,15.922,0,0,0-3.13,1.116c-1.4.614-3.039,1.32-3.637,1.57C170.751,47.627,153.679,58.2,145.67,65.447c-.33.3-2.131,1.888-4,3.531a111.292,111.292,0,0,0-14.195,14.667c-.617.747-1.658,1.969-2.309,2.716s-2.591,3.314-4.3,5.7-3.31,4.59-3.549,4.889-1.025,1.521-1.748,2.716a23.555,23.555,0,0,1-1.612,2.445c-.716.656-7.605,14.139-10.4,20.371-.792,1.766-3.182,8.42-4.389,12.223-.615,1.942-1.335,3.956-1.6,4.482a5.3,5.3,0,0,0-.479,2.018,15.706,15.706,0,0,1-.741,3.4c-.407,1.281-1.163,4.772-1.679,7.76s-1.282,7.334-1.7,9.653c-.895,4.933-.951,6.877-.223,8,.391.6.528.272.535-1.268.008-2.234,1.048-6.847,3.019-13.4.679-2.241,1.391-4.866,1.593-5.833a4.285,4.285,0,0,1,.871-2.07,1.694,1.694,0,0,0,.5-1.3,17.749,17.749,0,0,1,1.406-4.177c3.034-6.891,4.6-10.289,5.091-11.068.285-.448,1.13-2.037,1.878-3.531,2.106-4.21,6.5-11.544,7.324-12.223.179-.149,1.169-1.494,2.2-2.988,4.4-6.365,16.327-19.459,21.784-23.9.733-.6,2.556-2.064,4.05-3.259s2.838-2.309,2.988-2.483a104.326,104.326,0,0,1,9.57-6.481,3.082,3.082,0,0,0,1.252-.748c1.647-1.435,10.554-6.111,18.784-9.871,2.4-1.093,7.23-2.852,14.124-5.14,1.2-.4,3.029-.907,4.074-1.135s3.49-.8,5.432-1.264c15.273-3.68,37.619-4.161,55.138-1.187.9.152,3.341.67,5.432,1.149s4.658,1.061,5.7,1.294c5.42,1.206,17.3,5.739,25.532,9.74C309.79,78,329,94.016,340.593,110.2c1.417,1.977,2.761,3.841,2.988,4.139a74.82,74.82,0,0,1,5.568,8.867.845.845,0,0,0,.416.731,24.129,24.129,0,0,1,2.493,4.255c1.142,2.241,2.28,4.441,2.527,4.889a145.008,145.008,0,0,1,8.182,21.458c4.559,18.171,5.071,22.072,5.072,38.57,0,14.385-1.006,23.392-3.765,33.68-.479,1.793-1.063,3.993-1.3,4.889a146.967,146.967,0,0,1-5.89,16.569c-.7,1.669-3.481,7.312-6.011,12.223a195.67,195.67,0,0,1-11.439,17.146,140.892,140.892,0,0,1-57.652,43.968c-1.643.667-3.758,1.55-4.7,1.963a8.935,8.935,0,0,1-2.743.75,2.773,2.773,0,0,0-1.548.451,19.64,19.64,0,0,1-4.047,1.393c-1.942.519-4.308,1.18-5.257,1.471a31.948,31.948,0,0,1-4.5.858,7.319,7.319,0,0,0-3.058.793c-.386.625,5.947.551,9.011-.1,1.345-.288,3.545-.731,4.889-.986,8.033-1.524,9.588-1.861,10.339-2.235a14.671,14.671,0,0,1,2.716-.807c1.036-.216,3.962-1.078,6.5-1.918a116,116,0,0,0,13.852-5.431c10.281-4.578,29.508-16.046,31.779-18.956.149-.191,1.723-1.565,3.5-3.052s3.883-3.315,4.684-4.062c4.161-3.876,8.51-8.148,9.474-9.318,4.21-5.081,6.546-7.832,6.86-8.066,1.512-1.126,14.6-20.875,14.6-22.031a14.56,14.56,0,0,1,1.254-2.29,44.828,44.828,0,0,0,2.517-5.014c.694-1.643,1.855-4.332,2.58-5.976s1.531-3.477,1.79-4.074c.587-1.358,3.414-10.029,4.338-13.309.378-1.345.919-3.178,1.2-4.074a118.394,118.394,0,0,0,2.61-13.581c.283-2.091.766-5.269,1.073-7.062.736-4.305.717-28.441-.026-32.594-.322-1.793-.785-4.848-1.031-6.79a132.738,132.738,0,0,0-4.357-19.833c-.272-.9-.822-2.73-1.214-4.074a22.56,22.56,0,0,0-1.377-3.632,5.285,5.285,0,0,1-.664-2.037,4.482,4.482,0,0,0-.524-1.8c-.288-.519-1.05-2.166-1.692-3.66s-2.117-4.753-3.278-7.23a40.17,40.17,0,0,1-2.11-5.025.53.53,0,0,0-.543-.511.543.543,0,0,1-.543-.524c0-.565-4.655-8.359-7.638-12.785a120.151,120.151,0,0,0-13.173-16.605c-1.251-1.358-2.776-3.075-3.388-3.8A172.226,172.226,0,0,0,336.361,63.72C330.428,59,325.5,55.4,324.944,55.4a9.505,9.505,0,0,1-2.037-1.293c-4.611-3.447-18.145-10.366-25.631-13.1a17.45,17.45,0,0,1-3.232-1.446,2.6,2.6,0,0,0-1.475-.454,9.517,9.517,0,0,1-2.743-.75,53.371,53.371,0,0,0-8.032-2.571c-1.046-.232-3.49-.815-5.432-1.306-11.648-2.914-35.359-4.988-42.644-3.729m26.136,56.833c-.528,1.271-1.338,3.289-1.8,4.482s-1.048,2.662-1.3,3.259-.966,2.431-1.579,4.074-1.334,3.477-1.6,4.074-1.244,3.042-2.173,5.432-1.931,4.771-2.219,5.3a4.133,4.133,0,0,0-.526,1.547,10.116,10.116,0,0,1-.815,2.453l-1.634,3.687a10.371,10.371,0,0,0-.815,2.4,7.45,7.45,0,0,1-.782,2.091c-.429.845-1.179,2.515-1.666,3.71s-1.086,2.662-1.343,3.259c-2.086,4.943-4.4,11.272-4.19,11.484.136.136,7.92.24,17.291.225s17.375.189,17.791.456c1.065.679.477,2.716-3.7,12.823-.247.6-.868,2.186-1.38,3.531s-1.243,3.178-1.63,4.074-1.125,2.73-1.646,4.074-1.156,2.933-1.411,3.531-.979,2.431-1.609,4.074c-1.8,4.689-.221,4.346-20,4.365-19.813.019-18.857-.171-20.371,4.057a75.767,75.767,0,0,1-3.136,7.463,4.551,4.551,0,0,0-.463,1.547,9.335,9.335,0,0,1-.742,2.317c-.407.941-1.173,2.811-1.7,4.156s-1.3,3.215-1.7,4.156a9.335,9.335,0,0,0-.742,2.317,4.55,4.55,0,0,1-.463,1.547c-.735,1.494-2.037,4.536-3.073,7.2-.527,1.344-1.29,3.215-1.7,4.156a9.338,9.338,0,0,0-.741,2.317,4.172,4.172,0,0,1-.517,1.547,77.629,77.629,0,0,0-3.005,7.191c-.524,1.345-1.161,2.933-1.416,3.531s-.966,2.431-1.579,4.074-1.327,3.477-1.585,4.074c-.507,1.175-2.822,6.956-5.222,13.038-.826,2.091-1.8,4.536-2.173,5.432s-.983,2.485-1.358,3.531-1.157,3-1.723,4.346-1.287,3.056-1.6,3.8-.881,2.091-1.262,2.988-1.453,3.433-2.388,5.639c-5.407,12.774,2.434,22.641,19.49,24.527,10.574,1.168,33.348-.2,37.076-2.219a4.791,4.791,0,0,1,1.92-.513,29.668,29.668,0,0,0,5.032-1.388c2.23-.762,4.544-1.518,5.142-1.677a23.376,23.376,0,0,0,2.716-1.017c.9-.4,2.485-1.086,3.531-1.521a100.924,100.924,0,0,0,14.667-7.619c3.436-2.09,6.369-3.948,6.519-4.129a13.984,13.984,0,0,1,1.9-1.358,122.663,122.663,0,0,0,15.644-13.622c3.879-3.93,12.709-14.588,13.278-16.025a3.209,3.209,0,0,1,.668-1.087A154.881,154.881,0,0,0,318.3,240.64a101.019,101.019,0,0,0,4.233-9.527,10.827,10.827,0,0,1,.774-2.071,85.7,85.7,0,0,0,4.087-12.847c.238-1.345.7-3.545,1.024-4.889,5.047-20.9,2.995-47.487-5.161-66.818-.44-1.046-1-2.39-1.24-2.988-.478-1.186-3.426-7.152-4.5-9.1A122.2,122.2,0,0,0,306.5,116.24c-7.645-9.532-20.227-19.366-32.322-25.26-2.838-1.384-5.853-2.867-6.7-3.3a7.188,7.188,0,0,0-2.472-.781,2.453,2.453,0,0,1-1.45-.482c-1.619-1.513-2.746-1.161-3.709,1.158M249.058,330.666a17.24,17.24,0,0,0,3.531,0c.971-.119.177-.219-1.765-.219s-2.737.1-1.766.219" transform="translate(-92.237 -30.375)" fill="#eaf0ff" fill-rule="evenodd" opacity="0.54"/>
</svg>
