<svg xmlns="http://www.w3.org/2000/svg" width="17" height="15.406" viewBox="0 0 17 15.406">
  <path id="book" d="M16.592,1.152A17.769,17.769,0,0,0,13.611.908,10.547,10.547,0,0,0,8.486,2,11.432,11.432,0,0,0,3.29.844a12.653,12.653,0,0,0-2.915.315L0,1.257V15.163L.625,15a11.985,11.985,0,0,1,2.665-.283,10.846,10.846,0,0,1,3.96.7v.828h2.5v-.856a11.233,11.233,0,0,1,3.86-.611,17.149,17.149,0,0,1,2.8.227l.592.11V1.229l-.408-.077ZM1,13.907V2.049a12.771,12.771,0,0,1,2.29-.205A10.442,10.442,0,0,1,8,2.888V14.664a11.6,11.6,0,0,0-4.71-.945A13.954,13.954,0,0,0,1,13.907Zm15,.031a18.844,18.844,0,0,0-2.39-.154A11.146,11.146,0,0,0,9,14.639V2.866a10.022,10.022,0,0,1,4.61-.958A18,18,0,0,1,16,2.072V13.938Z" transform="translate(0 -0.844)" fill="#fff"/>
</svg>
