<svg xmlns="http://www.w3.org/2000/svg" width="16.72" height="21.261" viewBox="0 0 16.72 21.261">
  <g id="address_-_status_contact_details" data-name="address - status contact details" transform="translate(0.5 0.5)">
    <g id="Group_239" data-name="Group 239" transform="translate(0 0)">
      <g id="Group_238" data-name="Group 238" transform="translate(0)">
        <path id="Path_2211" data-name="Path 2211" d="M72.4,0H59.824a.7.7,0,0,0-.7.7V2.1h-1.4a.349.349,0,0,0,0,.7h1.4V5.939h-1.4a.349.349,0,0,0,0,.7h1.4V9.781h-1.4a.349.349,0,0,0,0,.7h1.4v3.144h-1.4a.349.349,0,0,0,0,.7h1.4v3.144h-1.4a.349.349,0,0,0,0,.7h1.4v1.4a.7.7,0,0,0,.7.7H72.4a.7.7,0,0,0,.7-.7V.7A.7.7,0,0,0,72.4,0ZM64.016,4.891a1.749,1.749,0,0,1,1.747-1.747h.7a1.749,1.749,0,0,1,1.747,1.747v1.4a1.749,1.749,0,0,1-1.747,1.747h-.7a1.749,1.749,0,0,1-1.747-1.747ZM60.771,18.064a.4.4,0,0,1-.115.073.349.349,0,0,1-.133.028.471.471,0,0,1-.07-.007.222.222,0,0,1-.063-.021.265.265,0,0,1-.063-.031l-.052-.042a.367.367,0,0,1-.1-.248.349.349,0,0,1,.028-.133.4.4,0,0,1,.073-.115.349.349,0,0,1,.381-.073.361.361,0,0,1,.115.073.4.4,0,0,1,.073.115.292.292,0,0,1,.028.133A.367.367,0,0,1,60.771,18.064Zm0-3.842h0a.4.4,0,0,1-.115.073.349.349,0,0,1-.133.028.471.471,0,0,1-.07-.007.222.222,0,0,1-.063-.021.265.265,0,0,1-.063-.031l-.052-.042a.367.367,0,0,1-.1-.248.349.349,0,0,1,.028-.133.4.4,0,0,1,.073-.115.349.349,0,0,1,.381-.073.361.361,0,0,1,.115.073.4.4,0,0,1,.073.115.292.292,0,0,1,.028.133A.368.368,0,0,1,60.771,14.222Zm0-3.842h0a.411.411,0,0,1-.115.073.354.354,0,0,1-.133.028.471.471,0,0,1-.07-.007.245.245,0,0,1-.063-.021.266.266,0,0,1-.063-.032l-.052-.042a.367.367,0,0,1-.1-.248A.35.35,0,0,1,60.2,10a.4.4,0,0,1,.073-.115.349.349,0,0,1,.381-.074.362.362,0,0,1,.115.074.4.4,0,0,1,.073.115.3.3,0,0,1,.028.133A.367.367,0,0,1,60.771,10.379Zm0-3.842h0a.42.42,0,0,1-.115.073.354.354,0,0,1-.133.028.517.517,0,0,1-.07-.007.245.245,0,0,1-.063-.021.266.266,0,0,1-.063-.032l-.052-.042a.368.368,0,0,1-.1-.248.35.35,0,0,1,.028-.133.4.4,0,0,1,.073-.115.349.349,0,0,1,.381-.074.362.362,0,0,1,.115.074.4.4,0,0,1,.073.115.293.293,0,0,1,.028.133A.368.368,0,0,1,60.771,6.537Zm0-3.842h0a.42.42,0,0,1-.115.073.354.354,0,0,1-.133.028.517.517,0,0,1-.07-.007.245.245,0,0,1-.063-.021.266.266,0,0,1-.063-.032l-.052-.042a.368.368,0,0,1-.1-.248.35.35,0,0,1,.028-.133.4.4,0,0,1,.073-.115.349.349,0,0,1,.381-.074.355.355,0,0,1,.115.074.4.4,0,0,1,.073.115.293.293,0,0,1,.028.133A.368.368,0,0,1,60.771,2.695Zm8.136,14.423H63.318a.349.349,0,1,1,0-.7h5.589a.349.349,0,0,1,0,.7Zm0-2.1H63.318a.349.349,0,1,1,0-.7h5.589a.349.349,0,0,1,0,.7Zm.349-2.795a.349.349,0,0,1-.349.349H67.263a.349.349,0,0,1,0-.7h1.295v-1.4a1.011,1.011,0,0,0-.966-1.048H64.633a1.011,1.011,0,0,0-.966,1.048v1.747a.349.349,0,1,1-.7,0V10.48a1.709,1.709,0,0,1,1.665-1.747h2.959a1.709,1.709,0,0,1,1.665,1.747v1.747Z" transform="translate(-57.379 0)" fill="none" stroke="#000" stroke-width="1"/>
        <path id="Path_2212" data-name="Path 2212" d="M244.206,101.93h.965a1.448,1.448,0,0,0,1.448-1.448V98.551a1.448,1.448,0,0,0-1.448-1.448h-.965a1.448,1.448,0,0,0-1.448,1.448v1.931A1.448,1.448,0,0,0,244.206,101.93Z" transform="translate(-236.028 -93.566)" fill="none" stroke="#000" stroke-width="1"/>
      </g>
    </g>
  </g>
</svg>
