<svg xmlns="http://www.w3.org/2000/svg" width="50.039" height="46.633" viewBox="0 0 50.039 46.633">
  <g id="Drafts" transform="translate(0)">
    <path id="Path_2620" data-name="Path 2620" d="M36.915,0H4.637a.981.981,0,0,0-.981.981V3.85C1.544,4.137,0,5.381,0,6.916S1.544,9.7,3.656,9.983v1.881C1.544,12.151,0,13.4,0,14.931S1.544,17.711,3.656,18v1.881C1.544,20.166,0,21.41,0,22.946s1.544,2.78,3.655,3.067v1.881C1.544,28.181,0,29.425,0,30.961s1.544,2.78,3.655,3.067v1.881C1.544,36.2,0,37.44,0,38.975s1.544,2.78,3.655,3.067v3.61a.981.981,0,0,0,.981.981H36.915a.981.981,0,0,0,.981-.981V.981A.981.981,0,0,0,36.915,0ZM1.963,6.916c0-.365.648-.877,1.693-1.079V8c-1.045-.2-1.693-.714-1.693-1.08Zm0,8.015c0-.365.648-.877,1.693-1.079V16.01c-1.045-.2-1.693-.714-1.693-1.079Zm0,8.015c0-.365.648-.877,1.693-1.079v2.159c-1.045-.2-1.693-.714-1.693-1.079Zm0,8.015c0-.365.648-.877,1.693-1.08V32.04c-1.045-.2-1.693-.714-1.693-1.079Zm0,8.014c0-.365.648-.877,1.693-1.079v2.159c-1.045-.2-1.693-.714-1.693-1.08Zm33.971,5.7H5.618V37.914c.992.214,1.6.706,1.6,1.061a.981.981,0,0,0,1.962,0c0-1.513-1.5-2.743-3.566-3.053V29.9c.992.213,1.6.706,1.6,1.061a.981.981,0,0,0,1.962,0c0-1.514-1.5-2.743-3.566-3.053V21.885c.992.213,1.6.706,1.6,1.061a.981.981,0,0,0,1.962,0c0-1.514-1.5-2.743-3.566-3.053V13.87c.992.214,1.6.707,1.6,1.061a.981.981,0,0,0,1.962,0c0-1.513-1.5-2.743-3.566-3.053V5.855c.992.214,1.6.707,1.6,1.061a.981.981,0,1,0,1.962,0c0-1.513-1.5-2.743-3.566-3.053v-1.9H35.934Zm0,0" transform="translate(0 0)" fill="#616161"/>
    <path id="Path_2621" data-name="Path 2621" d="M119.141,306.673h19.17a.981.981,0,1,0,0-1.962h-19.17a.981.981,0,1,0,0,1.962Zm0,0" transform="translate(-106.611 -274.93)" fill="#616161"/>
    <path id="Path_2622" data-name="Path 2622" d="M119.141,154.318h19.17a.981.981,0,1,0,0-1.962h-19.17a.981.981,0,0,0,0,1.962Zm0,0" transform="translate(-106.611 -137.466)" fill="#616161"/>
    <path id="Path_2623" data-name="Path 2623" d="M119.141,230.493h19.17a.981.981,0,1,0,0-1.962h-19.17a.981.981,0,0,0,0,1.962Zm0,0" transform="translate(-106.611 -206.196)" fill="#616161"/>
    <path id="Path_2624" data-name="Path 2624" d="M119.141,382.849h19.17a.981.981,0,1,0,0-1.962h-19.17a.981.981,0,0,0,0,1.962Zm0,0" transform="translate(-106.611 -343.662)" fill="#616161"/>
    <path id="Path_2625" data-name="Path 2625" d="M416.461,0h-8.28a.981.981,0,0,0-.981.981V35.068c0,.008,0,.015,0,.022,0,.03,0,.06.006.089,0,.011,0,.021,0,.032,0,.027.009.053.015.08l.008.03c.008.029.017.057.027.084l0,.016,4.14,10.587a.981.981,0,0,0,1.828,0l4.14-10.587,0-.016c.01-.027.019-.055.027-.084l.008-.03c.006-.027.011-.054.015-.081,0-.01,0-.021,0-.031,0-.03.005-.061.006-.092,0-.006,0-.013,0-.019s0,0,0,0V.981A.981.981,0,0,0,416.461,0Zm-4.14,28.712a.981.981,0,0,0-.981.981v4.39h-2.178V8.751h2.178V21.819a.981.981,0,0,0,1.962,0V8.751h2.178V34.083H413.3v-4.39A.981.981,0,0,0,412.32,28.712Zm-3.159-26.75h6.318V6.789h-6.318Zm3.159,41-2.7-6.912h5.406Zm0,0" transform="translate(-367.402)" fill="#616161"/>
    <path id="Path_2626" data-name="Path 2626" d="M450.553,253.5a.982.982,0,1,0,.964.8A.99.99,0,0,0,450.553,253.5Zm0,0" transform="translate(-405.635 -228.728)" fill="#616161"/>
    <path id="Path_2627" data-name="Path 2627" d="M119.141,78.138h15.238a.981.981,0,0,0,0-1.963H119.141a.981.981,0,0,0,0,1.963Zm0,0" transform="translate(-106.611 -68.731)" fill="#616161"/>
    <path id="Path_2628" data-name="Path 2628" d="M314.394,77.554a.981.981,0,1,0,.389-1.208.991.991,0,0,0-.389,1.208Zm0,0" transform="translate(-283.601 -68.753)" fill="#616161"/>
  </g>
</svg>
