<svg xmlns="http://www.w3.org/2000/svg" width="27.053" height="23.102" viewBox="0 0 27.053 23.102">
  <g id="edit_contact" data-name="edit contact" transform="translate(0 -0.29)">
    <g id="XMLID_724_" transform="translate(0 0.29)">
      <path id="XMLID_816_" d="M25.945.587a2.22,2.22,0,0,0-3.03.812L19.892,6.635h-6.52a.528.528,0,0,0,0,1.057h5.909l-2.194,3.8H4.756a.528.528,0,1,0,0,1.057H16.478l-1.22,2.114H4.756a.528.528,0,1,0,0,1.057H15.039l-.228,2.114H4.756a.528.528,0,1,0,0,1.057H14.7l-.028.261a.528.528,0,0,0,.837.483l3.374-2.465a.528.528,0,0,0,.146-.162l4.118-7.132V20.116A2.15,2.15,0,0,1,21,22.263H8.751c-.189,0-.489-.163-.584,0H4.756c-.094-.163-.426,0-.615,0H3.2a2.15,2.15,0,0,1-2.147-2.147V9.839A2.15,2.15,0,0,1,3.2,7.692H8.617a.528.528,0,0,0,0-1.057H3.2A3.208,3.208,0,0,0,0,9.839V20.116a3.208,3.208,0,0,0,3.2,3.2H9.056c.094.163-.189,0,0,0s-1.933.163-1.838,0H21a3.208,3.208,0,0,0,3.2-3.2V9.839a3.21,3.21,0,0,0-.28-1.311l2.836-4.912a2.22,2.22,0,0,0-.812-3.03Zm-.528.915a1.162,1.162,0,0,1,.425,1.586l-.3.523L23.528,2.45l.3-.523A1.163,1.163,0,0,1,25.416,1.5ZM16.081,15.916l1.521.878-1.754,1.281Zm2.294.1-2.011-1.161L23,3.366l2.011,1.161Z" transform="translate(0 -0.29)" fill="#5B5B5B"/>
      <path id="XMLID_819_" d="M198.608,121.424a.528.528,0,1,0-.374-.155A.535.535,0,0,0,198.608,121.424Z" transform="translate(-187.613 -114.022)" fill="#5B5B5B"/>
    </g>
  </g>
</svg>
