<svg xmlns="http://www.w3.org/2000/svg" width="31.702" height="25.229" viewBox="0 0 31.702 25.229">
  <g id="home" transform="translate(0.001 -46.994)">
    <g id="Group_16286" data-name="Group 16286" transform="translate(-0.001 46.994)">
      <path id="Path_2364" data-name="Path 2364" d="M77.024,120.939,65.718,130.26a.267.267,0,0,1-.01.059.269.269,0,0,0-.01.059v9.438a1.277,1.277,0,0,0,1.259,1.259h7.55v-7.551h5.034v7.551h7.55a1.278,1.278,0,0,0,1.259-1.259v-9.438a.277.277,0,0,0-.02-.118Z" transform="translate(-61.173 -115.846)" fill="#fff"/>
      <path id="Path_2365" data-name="Path 2365" d="M31.483,59.284l-4.306-3.579V47.682a.606.606,0,0,0-.629-.629H22.772a.605.605,0,0,0-.629.629v3.834l-4.8-4.011a2.439,2.439,0,0,0-2.989,0L.218,59.284A.571.571,0,0,0,0,59.706a.637.637,0,0,0,.138.462l1.219,1.455a.671.671,0,0,0,.413.216.731.731,0,0,0,.472-.138L15.85,50.357,29.458,61.7a.606.606,0,0,0,.413.137h.059a.672.672,0,0,0,.413-.216l1.219-1.455a.636.636,0,0,0,.137-.463A.573.573,0,0,0,31.483,59.284Z" transform="translate(0.001 -46.994)" fill="#fff"/>
    </g>
  </g>
</svg>
