<svg xmlns="http://www.w3.org/2000/svg" xmlns:xlink="http://www.w3.org/1999/xlink" width="76" height="76" viewBox="0 0 76 76">
  <defs>
    <linearGradient id="linear-gradient" x1="0.123" y1="1.117" x2="0.843" y2="0.372" gradientUnits="objectBoundingBox">
      <stop offset="0" stop-color="#fff"/>
      <stop offset="1" stop-color="#fff"/>
    </linearGradient>
    <linearGradient id="linear-gradient-2" x1="0.5" x2="0.5" y2="1" gradientUnits="objectBoundingBox">
      <stop offset="0" stop-color="#ff5959"/>
      <stop offset="1" stop-color="#d00b0b"/>
    </linearGradient>
    <filter id="Ellipse_1" x="0" y="0" width="76" height="76" filterUnits="userSpaceOnUse">
      <feOffset dx="4" dy="-4" input="SourceAlpha"/>
      <feGaussianBlur stdDeviation="4.5" result="blur"/>
      <feFlood flood-opacity="0.161"/>
      <feComposite operator="in" in2="blur"/>
      <feComposite in="SourceGraphic"/>
    </filter>
  </defs>
  <g id="Home_menu" data-name="Home menu" transform="translate(-245.5 -844.5)">
    <g id="Cart" transform="translate(64.5 88.877)">
      <path id="Path_2222" data-name="Path 2222" d="M28,25.451c15.464,0,28-11.749,28,4.249S43.464,58.665,28,58.665c-11.412,0-20.365-6.593-24.85-17.015C1.725,38.344,0,33.891,0,29.7,0,13.7,12.536,25.451,28,25.451Z" transform="translate(187 766)" fill="#fff"/>
      <path id="container-crane" d="M.549,31.9h31.9a.55.55,0,0,0,.55-.55V18.15a.55.55,0,0,0-.55-.55H21.677l-4.825-4.825a2.743,2.743,0,0,0,1.3-2.325.55.55,0,1,0-1.1,0,1.65,1.65,0,0,1-1,1.518l-.257-.257a.55.55,0,0,0-.763-.014l-.284.263A1.65,1.65,0,0,1,15.4,8.8a.55.55,0,0,0,.55-.55V6.522A2.2,2.2,0,0,0,17.6,4.4V2.75a.55.55,0,0,0-.55-.55h-1.1V0h-1.1V2.2h-1.1a.55.55,0,0,0-.55.55V4.4a2.2,2.2,0,0,0,1.65,2.122V7.755a2.746,2.746,0,0,0-.955,4.991L8.668,17.6H.549a.55.55,0,0,0-.55.55v13.2a.55.55,0,0,0,.55.55ZM14.3,4.4V3.3h2.2V4.4a1.1,1.1,0,0,1-2.2,0ZM31.9,30.8h-11V18.7h11ZM15.06,13.166a2.772,2.772,0,0,0,.339.034,2.673,2.673,0,0,0,.293-.03l4.43,4.43H10.284ZM1.1,18.7H19.8V30.8H1.1Zm16.5,2.75v6.6a.55.55,0,0,1-1.1,0v-6.6a.55.55,0,0,1,1.1,0Zm5.5,6.6v-6.6a.55.55,0,1,1,1.1,0v6.6a.55.55,0,1,1-1.1,0Zm5.5,0v-6.6a.55.55,0,0,1,1.1,0v6.6a.55.55,0,0,1-1.1,0Zm-2.75,0v-6.6a.55.55,0,1,1,1.1,0v6.6a.55.55,0,1,1-1.1,0ZM14.3,21.45v6.6a.55.55,0,1,1-1.1,0v-6.6a.55.55,0,1,1,1.1,0Zm-3.3,0v6.6a.55.55,0,0,1-1.1,0v-6.6a.55.55,0,1,1,1.1,0Zm-3.3,0v6.6a.55.55,0,0,1-1.1,0v-6.6a.55.55,0,1,1,1.1,0Zm-3.3,0v6.6a.55.55,0,1,1-1.1,0v-6.6a.55.55,0,1,1,1.1,0Zm0,0" transform="translate(198.001 777.934)" fill="url(#linear-gradient)"/>
    </g>
    <g id="Group_16410" data-name="Group 16410" transform="translate(48 35)">
      <g transform="matrix(1, 0, 0, 1, 197.5, 809.5)" filter="url(#Ellipse_1)">
        <circle id="Ellipse_1-2" data-name="Ellipse 1" cx="24.5" cy="24.5" r="24.5" transform="translate(9.5 17.5)" fill="url(#linear-gradient-2)"/>
      </g>
    </g>
    <g id="home_1_" data-name="home (1)" transform="translate(263.792 869.372)">
      <g id="Group_16419" data-name="Group 16419" transform="translate(2.208 2)">
        <path id="Path_2405" data-name="Path 2405" d="M27.259,12.983,25.306,11.03,14.562.286a.977.977,0,0,0-1.381,0L2.436,11.03.482,12.984a.977.977,0,0,0,1.381,1.381l.285-.287V26.372a.977.977,0,0,0,.977.977H24.615a.977.977,0,0,0,.977-.977V14.078l.286.286a.977.977,0,0,0,1.381-1.381ZM16.8,25.4H10.94V17.581H16.8Zm6.838,0H18.754V16.6a.977.977,0,0,0-.977-.977H9.963a.977.977,0,0,0-.977.977V25.4H4.1V12.124L13.87,2.357l9.768,9.768Z" transform="translate(-0.208 0)" fill="#fff"/>
      </g>
    </g>
  </g>
</svg>
