<svg xmlns="http://www.w3.org/2000/svg" width="34.267" height="26.921" viewBox="0 0 34.267 26.921">
  <g id="In_Yard" data-name="In Yard" transform="translate(0 0.754)">
    <g id="Group_16449" data-name="Group 16449" transform="translate(0 0)">
      <g id="Group_16448" data-name="Group 16448" transform="translate(0 0)">
        <path id="Path_2651" data-name="Path 2651" d="M33.664,8.374,21.428.07a.41.41,0,0,0-.46,0L8.731,8.374a.41.41,0,0,0-.18.339V25.757a.41.41,0,0,0,.41.41H33.434a.41.41,0,0,0,.41-.41V8.713A.41.41,0,0,0,33.664,8.374Zm-15.5,16.973H13.741V20.922h4.425v4.425Zm-5.3-14.859V9.56H29.528v.929Zm5.3,9.615H13.741V15.678h4.425Zm-1.748-4.425Zm6.992,9.669H18.985V20.922H23.41v4.425Zm9.615,0H29.474V16.579a.41.41,0,0,0-.819,0v8.768H24.229V20.513a.41.41,0,0,0-.41-.41H18.985V15.268a.41.41,0,0,0-.41-.41H13.741V11.308H28.654v1.524a.41.41,0,0,0,.819,0V11.308h.464a.41.41,0,0,0,.41-.41V9.15a.41.41,0,0,0-.41-.41H12.457a.41.41,0,0,0-.41.41V10.9a.41.41,0,0,0,.41.41h.464v14.04H9.37V8.93L21.2.9,33.025,8.93V25.347Z" transform="translate(-8.551 0)" fill="#168fe4"/>
      </g>
    </g>
    <g id="Group_16457" data-name="Group 16457" transform="translate(6.118 19.153)">
      <g id="Group_16456" data-name="Group 16456">
        <path id="Path_2655" data-name="Path 2655" d="M130.425,367.7h-1.748c-.226,0-.41.1-.41.23s.183.23.41.23h1.748c.226,0,.41-.1.41-.23S130.651,367.7,130.425,367.7Z" transform="translate(-128.267 -367.7)" fill="#168fe4"/>
      </g>
    </g>
    <g id="Group_16462" data-name="Group 16462" transform="translate(6.118 18.152)">
      <g id="Group_16456-2" data-name="Group 16456">
        <path id="Path_2655-2" data-name="Path 2655" d="M130.425,367.7h-1.748c-.226,0-.41.1-.41.23s.183.23.41.23h1.748c.226,0,.41-.1.41-.23S130.651,367.7,130.425,367.7Z" transform="translate(-128.267 -367.7)" fill="#168fe4"/>
      </g>
    </g>
    <g id="Group_16463" data-name="Group 16463" transform="translate(6.118 17.152)">
      <g id="Group_16456-3" data-name="Group 16456">
        <path id="Path_2655-3" data-name="Path 2655" d="M130.425,367.7h-1.748c-.226,0-.41.1-.41.23s.183.23.41.23h1.748c.226,0,.41-.1.41-.23S130.651,367.7,130.425,367.7Z" transform="translate(-128.267 -367.7)" fill="#168fe4"/>
      </g>
    </g>
    <g id="Group_16464" data-name="Group 16464" transform="translate(6.118 16.152)">
      <g id="Group_16456-4" data-name="Group 16456">
        <path id="Path_2655-4" data-name="Path 2655" d="M130.425,367.7h-1.748c-.226,0-.41.1-.41.23s.183.23.41.23h1.748c.226,0,.41-.1.41-.23S130.651,367.7,130.425,367.7Z" transform="translate(-128.267 -367.7)" fill="#168fe4"/>
      </g>
    </g>
    <g id="Group_16465" data-name="Group 16465" transform="translate(6.118 24.367)">
      <g id="Group_16456-5" data-name="Group 16456">
        <path id="Path_2655-5" data-name="Path 2655" d="M130.425,367.7h-1.748c-.226,0-.41.1-.41.23s.183.23.41.23h1.748c.226,0,.41-.1.41-.23S130.651,367.7,130.425,367.7Z" transform="translate(-128.267 -367.7)" fill="#168fe4"/>
      </g>
    </g>
    <g id="Group_16466" data-name="Group 16466" transform="translate(6.118 23.367)">
      <g id="Group_16456-6" data-name="Group 16456">
        <path id="Path_2655-6" data-name="Path 2655" d="M130.425,367.7h-1.748c-.226,0-.41.1-.41.23s.183.23.41.23h1.748c.226,0,.41-.1.41-.23S130.651,367.7,130.425,367.7Z" transform="translate(-128.267 -367.7)" fill="#168fe4"/>
      </g>
    </g>
    <g id="Group_16467" data-name="Group 16467" transform="translate(6.118 22.367)">
      <g id="Group_16456-7" data-name="Group 16456">
        <path id="Path_2655-7" data-name="Path 2655" d="M130.425,367.7h-1.748c-.226,0-.41.1-.41.23s.183.23.41.23h1.748c.226,0,.41-.1.41-.23S130.651,367.7,130.425,367.7Z" transform="translate(-128.267 -367.7)" fill="#168fe4"/>
      </g>
    </g>
    <g id="Group_16468" data-name="Group 16468" transform="translate(6.118 21.367)">
      <g id="Group_16456-8" data-name="Group 16456">
        <path id="Path_2655-8" data-name="Path 2655" d="M130.425,367.7h-1.748c-.226,0-.41.1-.41.23s.183.23.41.23h1.748c.226,0,.41-.1.41-.23S130.651,367.7,130.425,367.7Z" transform="translate(-128.267 -367.7)" fill="#168fe4"/>
      </g>
    </g>
    <g id="Group_16469" data-name="Group 16469" transform="translate(11.416 24.366)">
      <g id="Group_16456-9" data-name="Group 16456">
        <path id="Path_2655-9" data-name="Path 2655" d="M130.425,367.7h-1.748c-.226,0-.41.1-.41.23s.183.23.41.23h1.748c.226,0,.41-.1.41-.23S130.651,367.7,130.425,367.7Z" transform="translate(-128.267 -367.7)" fill="#168fe4"/>
      </g>
    </g>
    <g id="Group_16470" data-name="Group 16470" transform="translate(11.416 23.366)">
      <g id="Group_16456-10" data-name="Group 16456">
        <path id="Path_2655-10" data-name="Path 2655" d="M130.425,367.7h-1.748c-.226,0-.41.1-.41.23s.183.23.41.23h1.748c.226,0,.41-.1.41-.23S130.651,367.7,130.425,367.7Z" transform="translate(-128.267 -367.7)" fill="#168fe4"/>
      </g>
    </g>
    <g id="Group_16471" data-name="Group 16471" transform="translate(11.416 22.366)">
      <g id="Group_16456-11" data-name="Group 16456">
        <path id="Path_2655-11" data-name="Path 2655" d="M130.425,367.7h-1.748c-.226,0-.41.1-.41.23s.183.23.41.23h1.748c.226,0,.41-.1.41-.23S130.651,367.7,130.425,367.7Z" transform="translate(-128.267 -367.7)" fill="#168fe4"/>
      </g>
    </g>
    <g id="Group_16472" data-name="Group 16472" transform="translate(11.416 21.366)">
      <g id="Group_16456-12" data-name="Group 16456">
        <path id="Path_2655-12" data-name="Path 2655" d="M130.425,367.7h-1.748c-.226,0-.41.1-.41.23s.183.23.41.23h1.748c.226,0,.41-.1.41-.23S130.651,367.7,130.425,367.7Z" transform="translate(-128.267 -367.7)" fill="#168fe4"/>
      </g>
    </g>
    <path id="Path_2660" data-name="Path 2660" d="M10,0A9.76,9.76,0,0,1,20,9.5c0,5.247-5.352,9.912-10.875,9.912S.45,13.072.45,7.825,4.477,0,10,0Z" transform="translate(14.267 -0.754)" fill="#fff"/>
    <path id="Path_2658" data-name="Path 2658" d="M22.356,14.178c0,5.186-6.568,10.171-6.847,10.381a.552.552,0,0,1-.663,0C14.568,24.35,8,19.365,8,14.178a7.178,7.178,0,1,1,14.356,0ZM15.178,8.1A6.081,6.081,0,0,0,9.1,14.178c0,4.015,4.761,8.167,6.074,9.235,1.313-1.067,6.074-5.215,6.074-9.235A6.081,6.081,0,0,0,15.178,8.1Z" transform="translate(7.57 -6.834)" fill="#168fe4"/>
    <path id="Path_2659" data-name="Path 2659" d="M18.313,20.626a3.313,3.313,0,1,1,3.313-3.313A3.313,3.313,0,0,1,18.313,20.626Zm0-5.522a2.209,2.209,0,1,0,2.209,2.209A2.209,2.209,0,0,0,18.313,15.1Z" transform="translate(4.437 -9.968)" fill="#168fe4"/>
  </g>
</svg>
