<svg id="Invoice_download" data-name="Invoice download" xmlns="http://www.w3.org/2000/svg" width="40.758" height="38.869" viewBox="0 0 40.758 38.869">
  <path id="Path_454" data-name="Path 454" d="M70.8,60.987v18.9a2.83,2.83,0,0,1-2.83,2.83H44.729a2.83,2.83,0,0,1-2.83-2.83V50.28a2.83,2.83,0,0,1,2.83-2.83H57.267Z" transform="translate(-41.899 -43.848)" fill="#bed8fb"/>
  <path id="Path_455" data-name="Path 455" d="M92.179,35.267a2.83,2.83,0,0,1-2.83-2.83V2.83A2.83,2.83,0,0,1,92.179,0h12.538c2.156,0,13.538,11.382,13.538,13.537v18.9a2.83,2.83,0,0,1-2.83,2.83Z" transform="translate(-85.747 0)" fill="#fff"/>
  <path id="Path_456" data-name="Path 456" d="M290.748,13.537v1.2a4.564,4.564,0,0,0-4.564-4.564h-2.778a2.83,2.83,0,0,1-2.83-2.83V4.564A4.564,4.564,0,0,0,276.014,0h1.2a8.128,8.128,0,0,1,5.747,2.38l5.41,5.41A8.129,8.129,0,0,1,290.748,13.537Z" transform="translate(-258.241 0)" fill="#bed8fb"/>
  <g id="invoice" transform="translate(-27.768 0.004)">
    <g id="invoice_1_" data-name="invoice (1)" transform="translate(42.138 17.484)">
      <path id="Path_2648" data-name="Path 2648" d="M120.049,248.708H96.786a1.046,1.046,0,0,1-1.108-.971v-6.8a1.046,1.046,0,0,1,1.108-.971h23.263a1.046,1.046,0,0,1,1.108.971v6.8A1.046,1.046,0,0,1,120.049,248.708Z" transform="translate(-95.224 -239.516)" fill="#fff"/>
      <path id="Path_2649" data-name="Path 2649" d="M101.217,247.251a3.661,3.661,0,0,1-3.877-3.4V239.97h-.554a1.046,1.046,0,0,0-1.108.971v6.8a1.046,1.046,0,0,0,1.108.971h23.263a1.046,1.046,0,0,0,1.108-.971v-.485Z" transform="translate(-95.224 -239.516)" fill="#fff"/>
      <path id="Path_2652" data-name="Path 2652" d="M112.946,232.47H89.8a1.533,1.533,0,0,0-1.618,1.425v6.8a1.533,1.533,0,0,0,1.618,1.425h23.151a1.533,1.533,0,0,0,1.618-1.425v-6.8A1.533,1.533,0,0,0,112.946,232.47Zm.587,8.221a.556.556,0,0,1-.587.517H89.8a.556.556,0,0,1-.587-.517v-6.8a.556.556,0,0,1,.587-.517h23.151a.556.556,0,0,1,.587.517v6.8Z" transform="translate(-88.177 -232.47)" fill="#1a3375"/>
      <path id="Path_2653" data-name="Path 2653" d="M120.7,272.551a.454.454,0,0,0-.454.454v3.883a.454.454,0,1,0,.908,0v-3.883A.454.454,0,0,0,120.7,272.551Z" transform="translate(-118.3 -270.124)" fill="#1a3375"/>
      <path id="Path_2654" data-name="Path 2654" d="M318.627,272.551a.454.454,0,0,0-.454.454v3.883a.454.454,0,1,0,.908,0v-3.883A.454.454,0,0,0,318.627,272.551Z" transform="translate(-302.281 -270.124)" fill="#1a3375"/>
      <path id="Path_2655" data-name="Path 2655" d="M149.693,272.549a.454.454,0,0,0-.454.454v1.959l-1.081-2.163a.454.454,0,0,0-.86.2v3.883a.454.454,0,1,0,.908,0v-1.959l1.081,2.163a.454.454,0,0,0,.86-.2V273A.454.454,0,0,0,149.693,272.549Z" transform="translate(-143.164 -270.122)" fill="#1a3375"/>
      <path id="Path_2656" data-name="Path 2656" d="M207.416,272.563a.455.455,0,0,0-.551.33l-.53,2.121-.53-2.121a.454.454,0,1,0-.881.22l.971,3.883a.454.454,0,0,0,.881,0l.971-3.883A.454.454,0,0,0,207.416,272.563Z" transform="translate(-196.749 -270.122)" fill="#1a3375"/>
      <path id="Path_2657" data-name="Path 2657" d="M260.947,272.551a1.427,1.427,0,0,0-1.425,1.425v1.942a1.425,1.425,0,0,0,2.85,0v-1.942A1.427,1.427,0,0,0,260.947,272.551Zm.517,3.367a.517.517,0,0,1-.517.517h0a.517.517,0,0,1-.517-.517v-1.942a.517.517,0,0,1,1.033,0v1.942Z" transform="translate(-247.543 -270.124)" fill="#1a3375"/>
      <path id="Path_2658" data-name="Path 2658" d="M347.186,276.01a.454.454,0,0,0-.621.166.517.517,0,0,1-.964-.258v-1.942a.517.517,0,0,1,.964-.258.454.454,0,0,0,.786-.455,1.425,1.425,0,0,0-2.659.713v1.942a1.425,1.425,0,0,0,2.659.713A.454.454,0,0,0,347.186,276.01Z" transform="translate(-326.775 -270.124)" fill="#1a3375"/>
      <path id="Path_2659" data-name="Path 2659" d="M402.717,273.459a.454.454,0,0,0,0-.908h-1.456a.454.454,0,0,0-.454.454v3.883a.454.454,0,0,0,.454.454h1.456a.454.454,0,0,0,0-.908h-1V275.4h1a.454.454,0,0,0,0-.908h-1v-1.033h1Z" transform="translate(-378.726 -270.124)" fill="#1a3375"/>
    </g>
  </g>
</svg>
