<svg xmlns="http://www.w3.org/2000/svg" width="14.703" height="21.737" viewBox="0 0 14.703 21.737">
  <path id="location-pin" d="M10.351.5A7.36,7.36,0,0,0,3,7.851c0,5.845,6.567,13.481,6.846,13.8l.505.581.505-.583c.279-.322,6.846-7.958,6.846-13.8A7.36,7.36,0,0,0,10.351.5Zm0,19.668C8.82,18.265,4.337,12.31,4.337,7.851a6.015,6.015,0,0,1,12.029,0C16.366,12.306,11.883,18.265,10.351,20.168Zm0-16.141a4.01,4.01,0,1,0,4.01,4.01A4.015,4.015,0,0,0,10.351,4.027Zm0,6.683a2.673,2.673,0,1,1,2.673-2.673A2.676,2.676,0,0,1,10.351,10.71Z" transform="translate(-3 -0.5)" fill="#0e1b3d"/>
</svg>
