<svg xmlns="http://www.w3.org/2000/svg" width="12.507" height="15.576" viewBox="0 0 12.507 15.576">
  <g id="location_red_icon" data-name="location red icon" transform="translate(-50.5 -311.518)">
    <path id="Path_2600" data-name="Path 2600" d="M26.806,9.406a18.245,18.245,0,0,0,5.071,6.019.463.463,0,0,0,.142.109.407.407,0,0,0,.172.042h.022a.458.458,0,0,0,.2-.045.4.4,0,0,0,.129-.1c4.745-3.634,5.67-7.443,5.7-7.591a6.253,6.253,0,1,0-12.094-.035.441.441,0,0,0,.023.1A12.312,12.312,0,0,0,26.806,9.406Z" transform="translate(24.554 311.518)" fill="rgba(255,112,115,0.9)"/>
    <circle id="Ellipse_1240" data-name="Ellipse 1240" cx="3.312" cy="3.312" r="3.312" transform="translate(53.476 314.447)" fill="#fff"/>
  </g>
</svg>
