<svg xmlns="http://www.w3.org/2000/svg" x="0px" y="0px"
     width="26" height="26"
     viewBox="0 0 26 26"
     style=" fill:#fff;">
  <path d="M 13 0 C 6.383 0 1 5.383 1 12 C 1 16.526 3.524375 20.463859 7.234375 22.505859 C 7.095375 22.189859 7
  21.859766 7 21.509766 C 7 21.096766 7.1027813 20.685359 7.3007812 20.318359 C 7.3167813 20.288359 7.342375
  20.266328 7.359375 20.236328 C 4.731375 18.435328 3 15.42 3 12 C 3 6.486 7.486 2 13 2 C 18.514 2 23
  6.486 23 12 C 23 15.42 21.266672 18.433375 18.638672 20.234375 C 18.656672 20.265375 18.684172 20.290266
  18.701172 20.322266 C 18.897172 20.686266 19 21.096766 19 21.509766 C 19 21.858766 18.903625 22.188906
  18.765625 22.503906 C 22.474625 20.461906 25 16.526 25 12 C 25 5.383 19.617 0 13 0 z M 13.001953 11 C
  12.486953 11 11.941953 11.181219 11.751953 11.449219 C 11.621953 11.630219 11.25 21 11.25 21 L 9.5117188 21 C
  9.3227187 21 9.1505469 21.104531 9.0605469 21.269531 C 8.9715469 21.435531 8.9809375 21.636969 9.0859375 21.792969 C
  10.454937 23.813969 12.590641 25.819625 12.681641 25.890625 C 12.775641 25.964625 12.888 26 13 26 C 13.113 26
  13.226359 25.962625 13.318359 25.890625 C 13.408359 25.818625 15.545063 23.813969 16.914062 21.792969 C 17.020063
  21.635969 17.028453 21.434531 16.939453 21.269531 C 16.850453 21.103531 16.676328 21 16.486328 21 L 14.75 21 C
  14.75 21 14.455172 11.631219 14.326172 11.449219 C 14.135172 11.181219 13.517953 11 13.001953 11 z">

  </path></svg>