<svg xmlns="http://www.w3.org/2000/svg" xmlns:xlink="http://www.w3.org/1999/xlink" width="76" height="76" viewBox="0 0 76 76">
  <defs>
    <linearGradient id="linear-gradient" x1="0.5" x2="0.5" y2="1" gradientUnits="objectBoundingBox">
      <stop offset="0" stop-color="#ff5959"/>
      <stop offset="1" stop-color="#d00b0b"/>
    </linearGradient>
    <filter id="Ellipse_1" x="0" y="0" width="76" height="76" filterUnits="userSpaceOnUse">
      <feOffset dx="4" dy="-4" input="SourceAlpha"/>
      <feGaussianBlur stdDeviation="4.5" result="blur"/>
      <feFlood flood-opacity="0.161"/>
      <feComposite operator="in" in2="blur"/>
      <feComposite in="SourceGraphic"/>
    </filter>
  </defs>
  <g id="MENU_Cart" data-name="MENU Cart" transform="translate(5.5 14.701)">
    <path id="Path_2222" data-name="Path 2222" d="M28,25.451c15.464,0,28-11.749,28,4.249S43.464,58.665,28,58.665c-11.412,0-20.365-6.593-24.85-17.015C1.725,38.344,0,33.891,0,29.7,0,13.7,12.536,25.451,28,25.451Z" transform="translate(0 -4)" fill="#fff"/>
    <g id="Group_16397" data-name="Group 16397" transform="translate(-203 -824.201)">
      <g transform="matrix(1, 0, 0, 1, 197.5, 809.5)" filter="url(#Ellipse_1)">
        <circle id="Ellipse_1-2" data-name="Ellipse 1" cx="24.5" cy="24.5" r="24.5" transform="translate(9.5 17.5)" fill="url(#linear-gradient)"/>
      </g>
      <path id="Shape" d="M0,0H19.55" transform="translate(222.051 852.082)" fill="none" stroke="#fff" stroke-linecap="round" stroke-linejoin="round" stroke-miterlimit="10" stroke-width="2"/>
      <path id="Shape-2" data-name="Shape" d="M0,0H19.55" transform="translate(222.051 845.637)" fill="none" stroke="#fff" stroke-linecap="round" stroke-linejoin="round" stroke-miterlimit="10" stroke-width="2"/>
      <path id="Shape-3" data-name="Shape" d="M0,0H19.55" transform="translate(222.051 858.527)" fill="none" stroke="#fff" stroke-linecap="round" stroke-linejoin="round" stroke-miterlimit="10" stroke-width="2"/>
    </g>
  </g>
</svg>
