<svg xmlns="http://www.w3.org/2000/svg" width="39.113" height="44.7" viewBox="0 0 39.113 44.7">
  <g id="pdf_icon" data-name="pdf icon" transform="translate(-19.329)">
    <path id="Path_2382" data-name="Path 2382" d="M22.123,0H45.86l7.066,7.038,5.516,5.495V41.906A2.794,2.794,0,0,1,55.648,44.7H22.123a2.794,2.794,0,0,1-2.794-2.794V2.794A2.794,2.794,0,0,1,22.123,0Z" fill="#007cd3"/>
    <path id="Path_2383" data-name="Path 2383" d="M215.488,12.737h-9.738a2.8,2.8,0,0,1-2.794-2.794V.193Z" transform="translate(-157.087 -0.165)" fill="#b6c8f4"/>
    <path id="Path_2384" data-name="Path 2384" d="M105.919,137.028a.812.812,0,0,0,0-1.608h-2.665a.833.833,0,0,0-.812.908v6.55c0,.584.332.908.782.908s.781-.324.781-.908v-1.8h1.612a.757.757,0,0,0,.75-.816.743.743,0,0,0-.75-.794h-1.612v-2.443Zm-9.008-1.608h-1.95a.862.862,0,0,0-.905.9v6.561a.859.859,0,0,0,.927.879h2.046a3.8,3.8,0,0,0,4.022-4.054C101.05,137.107,99.544,135.42,96.911,135.42ZM97,142.145H95.815v-5.107h1.071c1.622,0,2.327,1.088,2.327,2.59C99.214,141.033,98.521,142.145,97,142.145Zm-7.144-6.725H87.929a.812.812,0,0,0-.851.908v6.55a.823.823,0,1,0,1.637,0v-1.912h1.211a2.645,2.645,0,0,0,2.728-2.762A2.676,2.676,0,0,0,89.861,135.42Zm-.032,4.009H88.715v-2.471h1.113a1.241,1.241,0,0,1,0,2.471Z" transform="translate(-57.957 -115.847)" fill="#fff"/>
  </g>
</svg>
