<svg xmlns="http://www.w3.org/2000/svg" width="116.193" height="124.863" viewBox="0 0 116.193 124.863">
  <g id="Pending_svg" data-name="Pending svg" transform="translate(-107.307 -52.486)">
    <path id="path0" d="M124.593,54.82c0,3.243-.386,3.874-2.37,3.874a3.123,3.123,0,0,0-1.207.274,5.724,5.724,0,0,1-1.5.4,2.569,2.569,0,0,0-1.182.38,2.336,2.336,0,0,1-1.092.38,6.227,6.227,0,0,0-1.586.483,3.54,3.54,0,0,1-.926.354,5.03,5.03,0,0,0-1.1.4c-1.685.773-2.962,1.374-3.644,1.716a3.281,3.281,0,0,1-.974.345.454.454,0,0,0-.39.274,1.178,1.178,0,0,1-.778.4c-.37.07-.673.2-.673.3s-.32.319-.71.5a2.71,2.71,0,0,0-.862.565.517.517,0,0,1-.368.237,11.657,11.657,0,0,0-2.716,1.749,5.952,5.952,0,0,1-1.11.713,22.053,22.053,0,0,0-2.975,2.358c-.485.421-1.109.936-1.385,1.145a65.01,65.01,0,0,0-4.833,4.746,1.547,1.547,0,0,1-.373.536,17.1,17.1,0,0,0-1.862,2.179,2.574,2.574,0,0,1-.535.633A13.55,13.55,0,0,0,88.15,81.51,7.8,7.8,0,0,1,86.9,83.12c-.1,0-.181.106-.185.237a5.689,5.689,0,0,1-.647,1.278c-.352.573-.949,1.652-1.326,2.4a8.339,8.339,0,0,1-.963,1.585.96.96,0,0,0-.275.656.968.968,0,0,1-.283.662,2.593,2.593,0,0,0-.506,1.017,3.817,3.817,0,0,1-.46,1.067,2.532,2.532,0,0,0-.372.852,2.543,2.543,0,0,1-.369.852,2.69,2.69,0,0,0-.361.988,2.24,2.24,0,0,1-.38.958,2.642,2.642,0,0,0-.394,1.095,10.588,10.588,0,0,1-.5,1.748,5.16,5.16,0,0,0-.356,1.325,2.586,2.586,0,0,1-.281.955,8.874,8.874,0,0,0-.476,2.115,12.036,12.036,0,0,1-.453,2.21,12.513,12.513,0,0,0-.386,2.6,11.521,11.521,0,0,1-.3,2.3c-.358.669-.444,6.963-.119,8.7a37.168,37.168,0,0,1,.426,3.882,14.2,14.2,0,0,0,.48,3.307,6.617,6.617,0,0,1,.355,1.663,3.947,3.947,0,0,0,.267,1.267,11.52,11.52,0,0,1,.486,1.745,9.953,9.953,0,0,0,.512,1.749,5.968,5.968,0,0,1,.394,1.42,3.027,3.027,0,0,0,.452,1.229,1.667,1.667,0,0,1,.35.805,3.162,3.162,0,0,0,.379,1.061,3.194,3.194,0,0,1,.379,1.017.831.831,0,0,0,.284.547.759.759,0,0,1,.284.434,7.849,7.849,0,0,0,.544,1.35c.3.633.6,1.279.666,1.435s.328.625.579,1.041.587,1.013.747,1.325.5.909.765,1.325.614,1,.784,1.307a6.606,6.606,0,0,0,.484.757A23.71,23.71,0,0,1,89,149.955a2.465,2.465,0,0,0,.479.687c.264.3.573.664.689.8,1.178,1.44,2.528,2.961,3.424,3.86a6.2,6.2,0,0,1,1.089,1.28.179.179,0,0,0,.164.189,7.044,7.044,0,0,1,1.278,1.055c.613.58,1.775,1.575,2.582,2.212a8.8,8.8,0,0,1,1.467,1.312c0,.085.093.155.206.155a10.758,10.758,0,0,1,2.066,1.326,20.043,20.043,0,0,0,2.964,1.873,1.458,1.458,0,0,1,.537.395,2.527,2.527,0,0,0,.871.506c.408.163.741.366.741.451s.25.208.555.275a1.641,1.641,0,0,1,.771.382,1.64,1.64,0,0,0,.769.382,1.268,1.268,0,0,1,.7.362,1.4,1.4,0,0,0,.774.362,3.569,3.569,0,0,1,1.165.5,2.144,2.144,0,0,0,.789.387,4.087,4.087,0,0,1,1.012.372,3.785,3.785,0,0,0,1.141.372,1.859,1.859,0,0,1,.837.324,4.14,4.14,0,0,0,1.392.465,3.16,3.16,0,0,1,1.247.427,3.3,3.3,0,0,0,1.349.408,4.728,4.728,0,0,1,1.43.372,4.422,4.422,0,0,0,1.515.31l1.125.067.053-2.6c.074-3.673.035-3.782-1.484-4.047a10.609,10.609,0,0,1-1.924-.521,3.664,3.664,0,0,0-1.029-.307,3.85,3.85,0,0,1-1.095-.36,7.005,7.005,0,0,0-1.461-.478,1.85,1.85,0,0,1-.923-.4,1.1,1.1,0,0,0-.747-.279,1.291,1.291,0,0,1-.841-.359,2.753,2.753,0,0,0-1.139-.564,2.531,2.531,0,0,1-1.053-.493.811.811,0,0,0-.517-.288,1.737,1.737,0,0,1-.76-.379,1.744,1.744,0,0,0-.825-.379.636.636,0,0,1-.5-.248,1.928,1.928,0,0,0-.753-.491,1.452,1.452,0,0,1-.7-.51.4.4,0,0,0-.319-.266,6.314,6.314,0,0,1-2.068-1.357c0-.087-.115-.158-.256-.158a12.782,12.782,0,0,1-2.963-2.3c0-.088-.127-.16-.283-.16a.776.776,0,0,1-.519-.379c-.13-.208-.33-.379-.446-.379a3.329,3.329,0,0,1-.975-.8c-.421-.443-1.377-1.4-2.124-2.13a32.436,32.436,0,0,1-2.226-2.414,5.1,5.1,0,0,0-1.029-1.089.186.186,0,0,1-.161-.2,5.48,5.48,0,0,0-.852-1.248,5.2,5.2,0,0,1-.852-1.267c0-.122-.17-.328-.379-.458a.767.767,0,0,1-.379-.489,1.113,1.113,0,0,0-.379-.6,1.116,1.116,0,0,1-.379-.574.793.793,0,0,0-.295-.476,2.986,2.986,0,0,1-.575-.828c-.154-.321-.483-.924-.731-1.341a9.65,9.65,0,0,1-.684-1.42,2.585,2.585,0,0,0-.364-.757,22.917,22.917,0,0,1-2.086-4.841,2.44,2.44,0,0,0-.358-.912,4.684,4.684,0,0,1-.489-1.208,6,6,0,0,0-.381-1.136,6.478,6.478,0,0,1-.385-1.56,6.034,6.034,0,0,0-.38-1.52,8.413,8.413,0,0,1-.381-2.083,7.742,7.742,0,0,0-.443-2.172c-.468-.867-.461-14.28.008-15.191a7.5,7.5,0,0,0,.445-2.083,6.536,6.536,0,0,1,.366-1.85A4.949,4.949,0,0,0,85.467,102a4.815,4.815,0,0,1,.39-1.515,5.592,5.592,0,0,0,.469-1.414,5.584,5.584,0,0,1,.474-1.42,3.965,3.965,0,0,0,.4-1.084,3.428,3.428,0,0,1,.4-1.036,1.439,1.439,0,0,0,.26-.633,1.918,1.918,0,0,1,.355-.763,3.621,3.621,0,0,0,.486-1.1,1.751,1.751,0,0,1,.39-.818,1.64,1.64,0,0,0,.382-.769,1.337,1.337,0,0,1,.343-.7,6.286,6.286,0,0,0,1.173-1.908,13.481,13.481,0,0,1,.95-1.56,4.966,4.966,0,0,0,.655-1.113.5.5,0,0,1,.258-.333,2.216,2.216,0,0,0,.557-.72,8.365,8.365,0,0,1,.925-1.283c.345-.393.773-.9.951-1.136A34.116,34.116,0,0,1,99.1,78.5c2.588-2.524,2.97-2.864,3.391-3.015.182-.065.331-.193.331-.283a34.885,34.885,0,0,1,4.418-3.36,38.871,38.871,0,0,1,4.1-2.375c.26-.117.6-.29.757-.385a10.219,10.219,0,0,1,.947-.458,8.308,8.308,0,0,0,.947-.47,5.422,5.422,0,0,1,.757-.375,9.919,9.919,0,0,0,.947-.455,4.912,4.912,0,0,1,1.226-.407,2.436,2.436,0,0,0,1-.389,2.162,2.162,0,0,1,.951-.36,6.639,6.639,0,0,0,1.36-.4,11.25,11.25,0,0,1,3.3-.687c.9,0,1.057.429,1.057,2.928,0,2.533-.014,2.515,1.4,1.763a4.411,4.411,0,0,1,1.157-.473.649.649,0,0,0,.458-.357,1.248,1.248,0,0,1,.717-.488,2.349,2.349,0,0,0,.81-.378,2.42,2.42,0,0,1,.757-.386,2.507,2.507,0,0,0,.757-.379,2.565,2.565,0,0,1,.757-.382,3.435,3.435,0,0,0,.925-.5,1.724,1.724,0,0,1,.633-.353,1.873,1.873,0,0,0,.663-.379,1.821,1.821,0,0,1,.92-.379.754.754,0,0,0,.59-.25,7,7,0,0,1,1.572-.959,21.185,21.185,0,0,0,2.679-1.473,3.9,3.9,0,0,1,.98-.451c1.095-.275,1.324-1.209.3-1.219a1.137,1.137,0,0,1-.645-.382,1.15,1.15,0,0,0-.692-.379,1.287,1.287,0,0,1-.728-.379,1.312,1.312,0,0,0-.562-.379,7.764,7.764,0,0,1-1.342-.615c-.637-.338-1.385-.726-1.662-.862s-.632-.325-.789-.422-.9-.481-1.657-.855a4.8,4.8,0,0,1-1.373-.849c0-.093-.331-.258-.735-.367a2.363,2.363,0,0,1-.96-.469,1.648,1.648,0,0,0-.777-.392,1.323,1.323,0,0,1-.666-.3,2.643,2.643,0,0,0-.854-.479c-.408-.163-.741-.373-.741-.465s-.11-.169-.244-.169a3.431,3.431,0,0,1-.947-.358l-.7-.358V54.82m22.1,3.807a41.173,41.173,0,0,0-.029,5.561c.1.52.821.861,2.354,1.112a5.8,5.8,0,0,1,1.458.459,2.8,2.8,0,0,0,1.029.32,3.761,3.761,0,0,1,1.193.365,10.674,10.674,0,0,0,1.566.573,2.265,2.265,0,0,1,.911.392.59.59,0,0,0,.456.184,1.752,1.752,0,0,1,.826.381,2.993,2.993,0,0,0,1.057.495,1.914,1.914,0,0,1,.9.472,1.079,1.079,0,0,0,.647.357,1.736,1.736,0,0,1,.805.379,1.864,1.864,0,0,0,.665.379,16.985,16.985,0,0,1,3.365,2.032c.11.08.332.231.494.335a20.979,20.979,0,0,1,3.623,2.862.509.509,0,0,0,.357.263c.537,0,6.781,6.184,6.781,6.716,0,.109.17.305.379.435s.379.312.379.4a2.738,2.738,0,0,0,.587.8,34.361,34.361,0,0,1,3.276,4.9,1.582,1.582,0,0,0,.31.568,9.145,9.145,0,0,1,1.147,1.893c.116.26.288.6.382.757a4.821,4.821,0,0,1,.285.568c.252.626,1.074,2.408,1.415,3.067a3.211,3.211,0,0,1,.362,1.044,2.959,2.959,0,0,0,.354,1,5.914,5.914,0,0,1,.5,1.508,4.122,4.122,0,0,0,.409,1.253,4.214,4.214,0,0,1,.377,1.424,4.478,4.478,0,0,0,.354,1.409,5.715,5.715,0,0,1,.367,1.7,10.359,10.359,0,0,0,.445,2.166c.425,1.129.489,14.757.073,15.486a9.023,9.023,0,0,0-.441,2.168,10.189,10.189,0,0,1-.436,2.218,5.529,5.529,0,0,0-.363,1.4,6.571,6.571,0,0,1-.391,1.515,6.943,6.943,0,0,0-.4,1.262,2.492,2.492,0,0,1-.382.95,3.423,3.423,0,0,0-.445,1.148,7.147,7.147,0,0,1-.483,1.417,2.64,2.64,0,0,0-.3.84,1.77,1.77,0,0,1-.376.757,1.752,1.752,0,0,0-.374.779,1.674,1.674,0,0,1-.357.757,3.435,3.435,0,0,0-.5.925,2.692,2.692,0,0,1-.373.757,4.327,4.327,0,0,0-.474.9c-.134.338-.318.615-.41.615a.2.2,0,0,0-.166.215,10.917,10.917,0,0,1-1.089,1.821c-.6.883-1.217,1.8-1.373,2.028l-.653.972a9.514,9.514,0,0,1-.663.873c-.161.178-.464.553-.672.834-.46.619-3.394,3.717-4.828,5.1A42.366,42.366,0,0,1,165,157.344c-.143,0-.26.071-.26.158a6.314,6.314,0,0,1-2.068,1.357.4.4,0,0,0-.319.266,1.452,1.452,0,0,1-.7.51,1.954,1.954,0,0,0-.741.47,1.288,1.288,0,0,1-.662.358,2.354,2.354,0,0,0-.732.305,9.573,9.573,0,0,1-2.487,1.2,2.016,2.016,0,0,0-.913.5,1.306,1.306,0,0,1-.848.368,1.1,1.1,0,0,0-.747.279,1.891,1.891,0,0,1-.923.407,5.65,5.65,0,0,0-1.351.479,3.118,3.118,0,0,1-1.136.355,3.974,3.974,0,0,0-1.24.351c-2.386,1.084-3.4.634-3.339-1.486a7.757,7.757,0,0,1,.134-1.533,2.551,2.551,0,0,0-.12-1.019c-.214-.853-.6-1.127-.809-.578a.436.436,0,0,1-.353.284,9.666,9.666,0,0,0-2.418,1.233,2.515,2.515,0,0,1-.9.371c-.338.072-.615.2-.615.282s-.234.239-.521.346a8.029,8.029,0,0,0-1.846.9c-.417.255-1.047.6-1.4.763a4.024,4.024,0,0,0-.913.569,1,1,0,0,1-.606.27,1.114,1.114,0,0,0-.668.368,1.948,1.948,0,0,1-.881.489c-.3.066-.549.192-.549.28s-.32.265-.71.393a6.158,6.158,0,0,0-1.183.543,10.177,10.177,0,0,1-1.751,1c-.917.395-.509.793,2.062,2.011a3.24,3.24,0,0,1,.9.561,1.389,1.389,0,0,0,.7.318,1.05,1.05,0,0,1,.681.393.575.575,0,0,0,.519.266,1.516,1.516,0,0,1,.785.284,8.491,8.491,0,0,0,1.125.658c.417.206.885.462,1.041.568a5.016,5.016,0,0,0,.757.388c.26.107,1.155.574,1.988,1.039s1.834.984,2.225,1.153.71.376.71.461.255.21.567.278a1.257,1.257,0,0,1,.71.379c.211.375,1.111.556,1.294.26a12.365,12.365,0,0,0,.1-2.539c-.055-2.649-.033-2.692,1.528-2.907a5.719,5.719,0,0,0,1.383-.339,5.1,5.1,0,0,1,1.253-.328,6.178,6.178,0,0,0,1.6-.5,3.377,3.377,0,0,1,1.161-.371,3.177,3.177,0,0,0,1.141-.379,3.4,3.4,0,0,1,.993-.385,3.957,3.957,0,0,0,1.044-.372,3.9,3.9,0,0,1,1.063-.372,1.81,1.81,0,0,0,.79-.387,3.1,3.1,0,0,1,1.114-.5,1.4,1.4,0,0,0,.773-.362,1.268,1.268,0,0,1,.7-.362,1.652,1.652,0,0,0,.779-.394.829.829,0,0,1,.556-.272,1.738,1.738,0,0,0,.811-.379,1.842,1.842,0,0,1,.674-.379,2.078,2.078,0,0,0,.728-.441,5.363,5.363,0,0,1,.819-.572,33.539,33.539,0,0,0,4.132-2.722.842.842,0,0,1,.4-.241,2.492,2.492,0,0,0,.714-.521,29.119,29.119,0,0,1,3.648-2.888.221.221,0,0,0,.2-.239c0-.132.266-.451.59-.71a9.732,9.732,0,0,0,.8-.706c.118-.129.811-.854,1.54-1.611s1.665-1.8,2.08-2.322c.7-.873.934-1.146,1.848-2.133a1.4,1.4,0,0,0,.331-.479,7.455,7.455,0,0,1,1.342-1.836c.072,0,.186-.213.251-.473s.2-.473.3-.473.312-.277.471-.615a15.2,15.2,0,0,1,.84-1.467c.3-.469.713-1.15.909-1.515a38.63,38.63,0,0,0,2.309-4.592c.129-.391.3-.71.385-.71s.243-.32.354-.71a14.762,14.762,0,0,1,1.115-2.923,3.2,3.2,0,0,0,.338-1.08,7.748,7.748,0,0,1,.491-1.609,4.026,4.026,0,0,0,.357-1.209,6.969,6.969,0,0,1,.383-1.508,6.679,6.679,0,0,0,.379-1.652,7.5,7.5,0,0,1,.37-1.711,19.608,19.608,0,0,0,.566-3.882,28.825,28.825,0,0,1,.387-3.407,43.857,43.857,0,0,0-.02-8.049c-.1-.521-.305-1.969-.447-3.219a22.947,22.947,0,0,0-.557-3.2,6.534,6.534,0,0,1-.3-1.616,6.8,6.8,0,0,0-.379-1.764,7.151,7.151,0,0,1-.38-1.413,2.443,2.443,0,0,0-.276-.862,8,8,0,0,1-.5-1.653,3.413,3.413,0,0,0-.482-1.343.91.91,0,0,1-.26-.622,2.967,2.967,0,0,0-.354-1.066,6.018,6.018,0,0,1-.488-1.275c-.074-.338-.21-.615-.3-.615s-.264-.359-.382-.8a4.237,4.237,0,0,0-.576-1.256,1.664,1.664,0,0,1-.36-.788.834.834,0,0,0-.275-.558,2.359,2.359,0,0,1-.488-.875c-.117-.356-.279-.648-.359-.648s-.286-.32-.458-.71a14.658,14.658,0,0,0-.777-1.467c-.256-.417-.576-.969-.711-1.228a5.032,5.032,0,0,0-.489-.757,6.565,6.565,0,0,1-1.176-1.657,1.158,1.158,0,0,0-.379-.523,1.231,1.231,0,0,1-.379-.488,2.389,2.389,0,0,0-.521-.693c-.286-.3-.819-.918-1.183-1.372s-.854-1.012-1.089-1.241a1.608,1.608,0,0,1-.426-.56,7.826,7.826,0,0,0-1.136-1.248,6.178,6.178,0,0,1-1.136-1.3.185.185,0,0,0-.167-.2,5.969,5.969,0,0,1-1.183-.976c-.559-.536-1.315-1.2-1.68-1.467a28.222,28.222,0,0,1-3.408-2.9c0-.082-.1-.149-.223-.149a7.525,7.525,0,0,1-1.523-.9,31.088,31.088,0,0,0-3.7-2.335c-.443-.222-.8-.48-.8-.573s-.159-.169-.353-.169a1.671,1.671,0,0,1-.8-.35,3.078,3.078,0,0,0-.959-.474,1.95,1.95,0,0,1-.757-.367,3.36,3.36,0,0,0-1.055-.48c-.443-.131-.8-.316-.8-.411s-.3-.229-.656-.3a1.809,1.809,0,0,1-.871-.382,1.893,1.893,0,0,0-.906-.387,5.649,5.649,0,0,1-1.351-.479,3.066,3.066,0,0,0-1.143-.351,3.416,3.416,0,0,1-1.211-.371,6.2,6.2,0,0,0-1.6-.5,5.508,5.508,0,0,1-1.348-.367,6.9,6.9,0,0,0-3.082-.346M118.79,86.3c-2.24.13-2.909,4.583-.79,5.256.19.06.345.168.345.239,0,.186,33.837.093,34.126-.094.133-.086.4-.241.6-.345,1.91-1.009,1.122-5-.99-5.027-4.533-.048-32.541-.072-33.29-.028m1.091,7.208c-.418.277-.207,7.838.232,8.322a1.186,1.186,0,0,1,.315.576,6.892,6.892,0,0,0,.823,1.864,44.62,44.62,0,0,0,4.1,4.616c.885.9,2.31,2.4,3.165,3.321s1.739,1.87,1.963,2.1a2.96,2.96,0,0,1,.426,2.444c-.223.569-1.276,1.755-4.371,4.921a37.309,37.309,0,0,0-2.7,2.922c0,.089-.122.23-.27.313a5.288,5.288,0,0,0-.9.975c-1.537,2.012-2.044,2.8-2.159,3.334a2.4,2.4,0,0,1-.424.918c-.253.286-.3.922-.31,3.911-.009,3.709.049,4.026.66,3.644a1.833,1.833,0,0,1,.824-.23h.457l.067-3.085c.055-2.542.125-3.174.4-3.591a2,2,0,0,0,.331-.768c0-.575,1.637-2.628,4.355-5.463,1.069-1.115,3.473-3.7,4.639-4.984,1.934-2.133,2.351-3.7,1.411-5.3-.305-.521-.66-1.181-.788-1.467s-.345-.521-.481-.521a.439.439,0,0,1-.357-.283c-.06-.156-1.812-2.009-3.894-4.118-3.46-3.5-4.035-4.192-4.706-5.634-.121-.26-.36-.729-.531-1.041-.249-.455-.322-1.273-.372-4.118-.048-2.751-.117-3.55-.308-3.55a6.087,6.087,0,0,1-.79-.1,1.339,1.339,0,0,0-.807.075m29.706,0-.473.135-.095,3.6c-.079,3-.15,3.682-.426,4.1a2,2,0,0,0-.331.758c0,.539-1.789,2.664-4.853,5.765-4.465,4.52-4.665,4.762-5.649,6.848-.579,1.226-.584,1.342-.1,2.2a3.085,3.085,0,0,1,.379.914,37.677,37.677,0,0,0,4.044,4.729,3.641,3.641,0,0,1,.689.768,4.5,4.5,0,0,0,1.353,1.257.188.188,0,0,1,.161.206,3.565,3.565,0,0,0,.8,1.006,15.882,15.882,0,0,1,2.988,3.672,7.8,7.8,0,0,0,.471,1.08c.433.88.466,1.151.467,3.84,0,2.155.062,2.908.239,2.953.13.033.529.157.887.275a1.663,1.663,0,0,0,.727.139c.469-.469.311-6.9-.189-7.683a3.841,3.841,0,0,1-.423-1.067,2.007,2.007,0,0,0-.492-.929,1.111,1.111,0,0,1-.368-.519,3.706,3.706,0,0,0-.71-.981c-.391-.437-.923-1.074-1.183-1.415s-1.176-1.333-2.035-2.2-1.562-1.616-1.562-1.655a18.643,18.643,0,0,0-1.281-1.378c-3.844-3.917-3.834-4.106.429-8.53,5.735-5.953,6.946-7.385,7.213-8.533a3.924,3.924,0,0,1,.415-.993c.345-.551.566-4.09.419-6.728-.1-1.866-.23-2-1.515-1.634m-21.306,10.067c-.062.1.263.589.723,1.083s1.084,1.182,1.385,1.529.868.958,1.258,1.358a3.161,3.161,0,0,1,.71.922.507.507,0,0,0,.271.347,9.621,9.621,0,0,1,2.255,3.077c.181.9.9.749,1.135-.242a1.388,1.388,0,0,1,.432-.825.4.4,0,0,0,.263-.317,16.767,16.767,0,0,1,2.552-3,2.982,2.982,0,0,0,.665-.887c0-.1.17-.244.379-.311s.38-.221.382-.344a3.09,3.09,0,0,1,.754-.964c1.563-1.54.981-2-1.231-.962-1.552.725-8.485.623-10.035-.148-.764-.379-1.758-.547-1.9-.32m6.983,18.694a2.279,2.279,0,0,0-.436.953,1.7,1.7,0,0,1-.476.913.808.808,0,0,0-.365.511,27.913,27.913,0,0,1-3.978,4.294,8.334,8.334,0,0,0-1.324,1.231,9.036,9.036,0,0,1-1.309,1.231,16.043,16.043,0,0,0-2.961,3.621c-.7,1.333-.837,3.116-.214,2.731.245-.151,22.257-.188,22.5-.037.572.353.349-1.678-.3-2.7a21.428,21.428,0,0,0-4.344-4.9,1.394,1.394,0,0,1-.615-.8.328.328,0,0,0-.348-.366c-.429,0-4.089-3.72-4.293-4.363a1.538,1.538,0,0,0-.428-.67,1.742,1.742,0,0,1-.4-.932c-.121-.745-.33-.952-.713-.707m-17.346,17.512c-1.528.509-1.56,4-.046,5.109.1.077,8.05.141,17.657.142l17.467,0,.565-.9c.892-1.422.512-3.963-.649-4.336-.544-.175-34.47-.193-34.993-.018" transform="translate(30)" fill="#ff8e0d" fill-rule="evenodd"/>
  </g>
</svg>
