<svg xmlns="http://www.w3.org/2000/svg" width="24.347" height="27.2" viewBox="0 0 24.347 27.2">
  <g id="user" transform="translate(-24.165)">
    <g id="Group_16288" data-name="Group 16288" transform="translate(29.278)">
      <g id="Group_16287" data-name="Group 16287" transform="translate(0)">
        <path id="Path_2366" data-name="Path 2366" d="M117.853,0a7.062,7.062,0,1,0,7.062,7.062A7.081,7.081,0,0,0,117.853,0Z" transform="translate(-110.791)" fill="#fff"/>
      </g>
    </g>
    <g id="Group_16290" data-name="Group 16290" transform="translate(24.165 14.629)">
      <g id="Group_16289" data-name="Group 16289" transform="translate(0)">
        <path id="Path_2367" data-name="Path 2367" d="M48.46,252.979a6.584,6.584,0,0,0-.709-1.3,8.778,8.778,0,0,0-6.075-3.824,1.3,1.3,0,0,0-.894.216,7.528,7.528,0,0,1-8.882,0,1.157,1.157,0,0,0-.894-.216,8.714,8.714,0,0,0-6.075,3.824,7.591,7.591,0,0,0-.709,1.3.656.656,0,0,0,.031.586,12.3,12.3,0,0,0,.833,1.234,11.72,11.72,0,0,0,1.419,1.6,18.49,18.49,0,0,0,1.419,1.234,14.063,14.063,0,0,0,16.776,0,13.56,13.56,0,0,0,1.419-1.234,14.24,14.24,0,0,0,1.419-1.6,10.811,10.811,0,0,0,.833-1.234A.526.526,0,0,0,48.46,252.979Z" transform="translate(-24.165 -247.841)" fill="#fff"/>
      </g>
    </g>
  </g>
</svg>
