<svg xmlns="http://www.w3.org/2000/svg" width="248.995" height="249" viewBox="0 0 248.995 249">
  <g id="search-interface-symbol" transform="translate(-0.006)">
    <g id="_x34__4_" transform="translate(0.006)">
      <g id="Group_16420" data-name="Group 16420">
        <path id="Path_2406" data-name="Path 2406" d="M246.644,235.454l-64.288-63.26a101.684,101.684,0,0,0,27.179-69.1C209.526,46.153,162.626,0,104.766,0S.006,46.153.006,103.095s46.9,103.095,104.76,103.095A105.356,105.356,0,0,0,170.7,183.167l64.537,63.51a8.147,8.147,0,0,0,11.394,0A7.849,7.849,0,0,0,246.644,235.454ZM104.766,190.327c-48.955,0-88.641-39.055-88.641-87.233s39.686-87.233,88.641-87.233,88.641,39.055,88.641,87.233S153.722,190.327,104.766,190.327Z" transform="translate(-0.006 0)" fill="#dbe0e6"/>
      </g>
    </g>
  </g>
</svg>
