<svg xmlns="http://www.w3.org/2000/svg" width="13.925" height="13.344" viewBox="0 0 13.925 13.344">
  <path id="star" d="M3.117,13.837a.741.741,0,0,1-.721-.905l.9-3.946L.254,6.321a.741.741,0,0,1,.42-1.3l4.02-.365L6.282.942a.74.74,0,0,1,1.361,0l1.589,3.72,4.019.365a.741.741,0,0,1,.421,1.3L10.634,8.985l.138.606.758,3.34a.74.74,0,0,1-1.1.8L6.963,11.659,3.5,13.732a.742.742,0,0,1-.379.105Zm1.04-6.194c.132,0,.419-2.638.536-2.568l5.92,7.754L3.5,7.643a9.726,9.726,0,0,1,1.2-2.568l.551.461,7.627.332-7.252.454c-.273-.025,4.256-.2,4.149-.454l-2.805-4.3L5.244,6.321s6.271,6.585,6,6.61L1.054,5.866l4.19-.331h6.625l-2.1.331-2.805-4.3L4.157,9.1l.536-1.461,1.89,3.229C6.7,10.8,4.025,7.643,4.157,7.643Zm-3.1-1.776h0ZM9.262,4.731h0ZM4.157,11.659" transform="translate(-0.001 -0.492)" fill="#ffd607"/>
</svg>
