<svg xmlns="http://www.w3.org/2000/svg" width="29.734" height="28.372" viewBox="0 0 29.734 28.372">
  <g id="Track_truck" data-name="Track truck" transform="translate(0)">
    <g id="Group_678" data-name="Group 678" transform="translate(0)">
      <rect id="Rectangle_1960" data-name="Rectangle 1960" width="1" height="2" transform="translate(18.867 24)" fill="#5B5B5B"/>
      <rect id="Rectangle_1961" data-name="Rectangle 1961" width="1" height="2" transform="translate(5.867 24)" fill="#5B5B5B"/>
      <rect id="Rectangle_1962" data-name="Rectangle 1962" width="2" height="1" transform="translate(26.867 23)" fill="#5B5B5B"/>
      <rect id="Rectangle_1963" data-name="Rectangle 1963" width="2" height="1" transform="translate(26.867 21)" fill="#5B5B5B"/>
      <rect id="Rectangle_1964" data-name="Rectangle 1964" width="1" height="2" transform="translate(26.867 19)" fill="#5B5B5B"/>
      <path id="Path_496" data-name="Path 496" d="M2.436,32.3,8.3,26.436A1.477,1.477,0,0,1,9.349,26h5.04a.991.991,0,0,1,.991.991v6.443h11.4a.991.991,0,0,1,.991.991v3.965a1.487,1.487,0,0,1-1.487,1.487H25.252a3.459,3.459,0,0,1-1.006,1.982h7.488v.991H7.947a3.469,3.469,0,0,1-3.429-2.973H3.487A1.487,1.487,0,0,1,2,38.389V33.349A1.478,1.478,0,0,1,2.436,32.3Zm.556,1.052v.085h7.433v-4.46H7.161L3.136,33A.5.5,0,0,0,2.991,33.349ZM24.3,39.381a2.478,2.478,0,1,0-2.478,2.478A2.478,2.478,0,0,0,24.3,39.381Zm-4.9,2.478a3.459,3.459,0,0,1-1.006-1.982H11.376a3.457,3.457,0,0,1-1.006,1.982Zm-11.452,0a2.478,2.478,0,1,0-2.478-2.478,2.478,2.478,0,0,0,2.478,2.478Zm-4.46-2.973H4.517a3.464,3.464,0,0,1,6.859,0h7.017a3.464,3.464,0,0,1,6.859,0h1.031a.5.5,0,0,0,.5-.5V34.425H14.885a.5.5,0,0,1-.5-.5V26.991H9.349A.5.5,0,0,0,9,27.137l-.845.845h2.273a.991.991,0,0,1,.991.991v4.46a.991.991,0,0,1-.991.991H2.991v3.965A.5.5,0,0,0,3.487,38.885Z" transform="translate(-2 -14.478)" fill="#5B5B5B"/>
      <rect id="Rectangle_1965" data-name="Rectangle 1965" width="3" height="1" transform="translate(7.867 21)" fill="#5B5B5B"/>
      <rect id="Rectangle_1966" data-name="Rectangle 1966" width="3" transform="translate(24.867 2)" fill="#5B5B5B"/>
      <rect id="Rectangle_1967" data-name="Rectangle 1967" transform="translate(28.866 2)" fill="#5B5B5B"/>
      <rect id="Rectangle_1968" data-name="Rectangle 1968" width="3" height="1" transform="translate(23.867)" fill="#5B5B5B"/>
      <rect id="Rectangle_1969" data-name="Rectangle 1969" width="1" height="1" transform="translate(26.867)" fill="#5B5B5B"/>
      <rect id="Rectangle_1970" data-name="Rectangle 1970" width="4" height="2" transform="translate(5.867 7)" fill="#5B5B5B"/>
      <rect id="Rectangle_1971" data-name="Rectangle 1971" width="1" height="2" transform="translate(10.867 7)" fill="#5B5B5B"/>
      <path id="Path_497" data-name="Path 497" d="M20.885,13.443c0,4.654-5.894,9.129-6.145,9.317a.5.5,0,0,1-.595,0C13.894,22.571,8,18.1,8,13.443a6.442,6.442,0,1,1,12.885,0ZM14.442,7.991a5.458,5.458,0,0,0-5.451,5.451c0,3.6,4.273,7.33,5.451,8.289,1.178-.958,5.451-4.68,5.451-8.289a5.458,5.458,0,0,0-5.451-5.451Z" transform="translate(5.876 -4.894)" fill="#5B5B5B"/>
      <path id="Path_498" data-name="Path 498" d="M17.973,19.947a2.973,2.973,0,1,1,2.973-2.973,2.973,2.973,0,0,1-2.973,2.973Zm0-4.956a1.982,1.982,0,1,0,1.982,1.982A1.982,1.982,0,0,0,17.973,14.991Z" transform="translate(2.345 -8.425)" fill="#5B5B5B"/>
      <rect id="Rectangle_1972" data-name="Rectangle 1972" width="3" transform="translate(7.867 6)" fill="#168fe4"/>
      <rect id="Rectangle_1973" data-name="Rectangle 1973" transform="translate(11.867 6)" fill="#168fe4"/>
    </g>
  </g>
</svg>
