<svg xmlns="http://www.w3.org/2000/svg" width="16.867" height="21.79" viewBox="0 0 16.867 21.79">
  <g id="truck-variant-front-view" transform="translate(-60.798)">
    <g id="Group_237" data-name="Group 237" transform="translate(60.798)">
      <path id="Path_2205" data-name="Path 2205" d="M99.735,421.32H85.255a.212.212,0,0,0-.212.212v1.484a.212.212,0,0,0,.212.212H99.735a.212.212,0,0,0,.212-.212v-1.484A.212.212,0,0,0,99.735,421.32ZM87.48,422.857H85.53a.212.212,0,0,1-.212-.212V421.9a.212.212,0,0,1,.212-.212l2.161.955A.212.212,0,0,1,87.48,422.857Zm12-.212a.212.212,0,0,1-.212.212H97.319a.212.212,0,0,1-.212-.212l2.161-.955a.212.212,0,0,1,.212.212v.743Z" transform="translate(-84.061 -404.262)" fill="#fff"/>
      <path id="Path_2206" data-name="Path 2206" d="M112.591,477.009a.29.29,0,0,0,.29.29h1.583a.29.29,0,0,0,.29-.29v-2.281h-2.162v2.281Z" transform="translate(-110.494 -455.509)" fill="#fff"/>
      <path id="Path_2207" data-name="Path 2207" d="M374.434,477.009a.29.29,0,0,0,.29.29h1.583a.29.29,0,0,0,.29-.29v-2.281h-2.162v2.281Z" transform="translate(-361.736 -455.509)" fill="#fff"/>
      <path id="Path_2208" data-name="Path 2208" d="M76.944,0H61.519A.721.721,0,0,0,60.8.721V14.865a.721.721,0,0,0,.721.721h.911v1.036H75.989a.4.4,0,0,1,.045,0V15.586h.911a.722.722,0,0,0,.721-.721V.721A.722.722,0,0,0,76.944,0ZM66.574,15.608a.45.45,0,0,1-.45.451H64.006a.45.45,0,0,1-.45-.451v-.653a.451.451,0,0,1,.45-.451h2.117a.451.451,0,0,1,.45.451Zm8.2,0a.451.451,0,0,1-.45.451H72.2a.45.45,0,0,1-.45-.451v-.653a.451.451,0,0,1,.45-.451h2.118a.451.451,0,0,1,.45.451Zm.135-4.031a.45.45,0,0,1-.45.45H63.916a.45.45,0,0,1-.45-.45V7.658a.45.45,0,0,1,.45-.451H74.457a.45.45,0,0,1,.45.451v3.919Zm2.217,3.288a.18.18,0,0,1-.18.18h-.911V6.622a.45.45,0,0,0-.45-.45H62.88a.45.45,0,0,0-.45.45v8.424h-.911a.18.18,0,0,1-.18-.18V.721a.18.18,0,0,1,.18-.18H76.944a.18.18,0,0,1,.18.18V14.865Z" transform="translate(-60.798 0)" fill="#fff"/>
    </g>
  </g>
</svg>
